<svg width="56" height="56" viewBox="0 0 56 56" fill="none" xmlns="http://www.w3.org/2000/svg">
<path d="M53.4046 29.5294C53.4046 28.4248 52.5092 27.5294 51.4046 27.5294C50.3 27.5294 49.4046 28.4248 49.4046 29.5294H53.4046ZM26.7023 7.05882C27.8069 7.05882 28.7023 6.16339 28.7023 5.05882C28.7023 3.95425 27.8069 3.05882 26.7023 3.05882V7.05882ZM41.0535 29.5294C41.0535 28.4248 40.158 27.5294 39.0535 27.5294C37.9489 27.5294 37.0535 28.4248 37.0535 29.5294H41.0535ZM26.7023 19.2941C27.8069 19.2941 28.7023 18.3987 28.7023 17.2941C28.7023 16.1895 27.8069 15.2941 26.7023 15.2941V19.2941ZM39.0268 19.6425C39.8115 18.8651 39.8175 17.5988 39.0401 16.8141C38.2628 16.0294 36.9965 16.0234 36.2117 16.8008L39.0268 19.6425ZM25.2948 27.6153C24.51 28.3927 24.5041 29.659 25.2814 30.4437C26.0588 31.2285 27.3251 31.2344 28.1098 30.4571L25.2948 27.6153ZM54 10.6517L55.4075 12.0725C55.9472 11.5379 56.1374 10.7436 55.8984 10.0224C55.6594 9.30129 55.0324 8.77784 54.2802 8.67139L54 10.6517ZM44.1747 20.3848L43.5476 22.2839C44.2618 22.5197 45.0479 22.335 45.5822 21.8056L44.1747 20.3848ZM35.4411 11.7331L34.0336 10.3123C33.4915 10.8492 33.3022 11.6478 33.5455 12.371L35.4411 11.7331ZM45.2664 2L47.2459 1.71453C47.1381 0.966897 46.6182 0.343789 45.9021 0.103707C45.1858 -0.136375 44.3955 0.0475339 43.8588 0.579138L45.2664 2ZM37.6245 18.2219L35.7289 18.8597C35.9297 19.4563 36.3996 19.9236 36.9974 20.121L37.6245 18.2219ZM46.3581 9.5702L44.3786 9.85567C44.5054 10.7354 45.1977 11.4259 46.0778 11.5505L46.3581 9.5702ZM49.4046 29.5294C49.4046 41.9218 39.2582 52 26.7023 52V56C41.4318 56 53.4046 44.1664 53.4046 29.5294H49.4046ZM26.7023 52C14.1463 52 3.99997 41.9218 3.99997 29.5294H-3.05176e-05C-3.05176e-05 44.1664 11.9728 56 26.7023 56V52ZM3.99997 29.5294C3.99997 17.137 14.1463 7.05882 26.7023 7.05882V3.05882C11.9728 3.05882 -3.05176e-05 14.8924 -3.05176e-05 29.5294H3.99997ZM37.0535 29.5294C37.0535 35.1645 32.4369 39.7647 26.7023 39.7647V43.7647C34.6104 43.7647 41.0535 37.4091 41.0535 29.5294H37.0535ZM26.7023 39.7647C20.9677 39.7647 16.3511 35.1645 16.3511 29.5294H12.3511C12.3511 37.4091 18.7942 43.7647 26.7023 43.7647V39.7647ZM16.3511 29.5294C16.3511 23.8943 20.9677 19.2941 26.7023 19.2941V15.2941C18.7942 15.2941 12.3511 21.6497 12.3511 29.5294H16.3511ZM36.2117 16.8008L25.2948 27.6153L28.1098 30.4571L39.0268 19.6425L36.2117 16.8008ZM52.5924 9.2308L42.7671 18.9639L45.5822 21.8056L55.4075 12.0725L52.5924 9.2308ZM36.8486 13.154L46.6739 3.42086L43.8588 0.579138L34.0336 10.3123L36.8486 13.154ZM44.8018 18.4856L38.2516 16.3227L36.9974 20.121L43.5476 22.2839L44.8018 18.4856ZM39.5201 17.584L37.3367 11.0953L33.5455 12.371L35.7289 18.8597L39.5201 17.584ZM43.2869 2.28547L44.3786 9.85567L48.3376 9.28474L47.2459 1.71453L43.2869 2.28547ZM46.0778 11.5505L53.7197 12.6319L54.2802 8.67139L46.6383 7.58993L46.0778 11.5505Z" fill="#AB94EE"/>
</svg>
