<svg width="63" height="58" viewBox="0 0 63 58" fill="none" xmlns="http://www.w3.org/2000/svg">
<path d="M43.8698 55.9994L43.8707 45.8755C43.8711 40.2833 39.4491 35.7497 33.9941 35.7497H11.8776C6.42342 35.7497 2.00172 40.282 2.00111 45.8734L2 55.9994M60.9991 56L61 45.876C61.0005 40.2838 56.5785 35.7502 51.1235 35.7502M41.9674 3.98905C44.3928 5.83393 45.9647 8.79151 45.9647 12.1254C45.9647 15.4594 44.3928 18.417 41.9674 20.2618M33.0174 12.1249C33.0174 17.7167 28.5955 22.2498 23.1409 22.2498C17.6862 22.2498 13.2643 17.7167 13.2643 12.1249C13.2643 6.53307 17.6862 2 23.1409 2C28.5955 2 33.0174 6.53307 33.0174 12.1249Z" stroke="#FFD5B6" stroke-width="4" stroke-linecap="round" stroke-linejoin="round"/>
</svg>
