<svg width="40" height="40" viewBox="0 0 40 40" fill="none" xmlns="http://www.w3.org/2000/svg">
<path d="M8.86517 24.1745L7.47277 29.3725L2.3836 29.4802C0.862688 26.6592 0 23.4317 0 20.0019C0 16.6853 0.806592 13.5576 2.23633 10.8037H2.23743L6.76822 11.6344L8.75298 16.138C8.33757 17.349 8.11116 18.6491 8.11116 20.0019C8.11131 21.47 8.37726 22.8767 8.86517 24.1745Z" fill="#FBBB00"/>
<path d="M39.6505 16.2646C39.8802 17.4745 40 18.724 40 20.001C40 21.433 39.8494 22.8297 39.5626 24.177C38.589 28.7618 36.0449 32.7652 32.5207 35.5983L32.5196 35.5972L26.8128 35.306L26.0051 30.2641C28.3436 28.8926 30.1712 26.7464 31.1339 24.177H20.439V16.2646H31.2899H39.6505Z" fill="#518EF8"/>
<path d="M32.5228 35.5963L32.5239 35.5974C29.0964 38.3524 24.7423 40.0008 20.0026 40.0008C12.3859 40.0008 5.76367 35.7436 2.3855 29.4785L8.86706 24.1729C10.5561 28.6807 14.9046 31.8896 20.0026 31.8896C22.1939 31.8896 24.2468 31.2973 26.0083 30.2632L32.5228 35.5963Z" fill="#28B446"/>
<path d="M32.7655 4.60454L26.2862 9.90911C24.4631 8.76954 22.308 8.11123 19.9991 8.11123C14.7857 8.11123 10.3559 11.4674 8.75146 16.1368L2.23583 10.8026H2.23474C5.56346 4.38477 12.2692 0 19.9991 0C24.852 0 29.3017 1.72866 32.7655 4.60454Z" fill="#F14336"/>
</svg>
