<svg width="15" height="18" viewBox="0 0 15 18" fill="none" xmlns="http://www.w3.org/2000/svg">
<path d="M13.3333 18H1.66667C0.746192 18 0 17.1941 0 16.2V3.6C0 2.60589 0.746192 1.8 1.66667 1.8H3.33333V0H5V1.8H10V0H11.6667V1.8H13.3333C14.2538 1.8 15 2.60589 15 3.6V16.2C15 17.1941 14.2538 18 13.3333 18ZM1.66667 7.2V16.2H13.3333V7.2H1.66667ZM1.66667 3.6V5.4H13.3333V3.6H1.66667ZM11.6667 14.4H10V12.6H11.6667V14.4ZM8.33333 14.4H6.66667V12.6H8.33333V14.4ZM5 14.4H3.33333V12.6H5V14.4ZM11.6667 10.8H10V9H11.6667V10.8ZM8.33333 10.8H6.66667V9H8.33333V10.8ZM5 10.8H3.33333V9H5V10.8Z" fill="#3553D2"/>
</svg>
