<svg width="40" height="40" viewBox="0 0 40 40" fill="none" xmlns="http://www.w3.org/2000/svg">
<g clip-path="url(#clip0_173_601)">
<path d="M40 20C40 8.9544 31.0456 0 20 0C8.9544 0 0 8.9544 0 20C0 29.3792 6.4576 37.2496 15.1688 39.4112V26.112H11.0448V20H15.1688V17.3664C15.1688 10.5592 18.2496 7.404 24.9328 7.404C26.2 7.404 28.3864 7.6528 29.2808 7.9008V13.4408C28.8088 13.3912 27.9888 13.3664 26.9704 13.3664C23.6912 13.3664 22.424 14.6088 22.424 17.8384V20H28.9568L27.8344 26.112H22.424V39.8536C32.3272 38.6576 40.0008 30.2256 40.0008 20H40Z" fill="#0866FF"/>
<path d="M27.8336 26.1123L28.956 20.0003H22.4232V17.8387C22.4232 14.6091 23.6904 13.3667 26.9696 13.3667C27.988 13.3667 28.808 13.3915 29.28 13.4411V7.9011C28.3856 7.6523 26.1992 7.4043 24.932 7.4043C18.2488 7.4043 15.168 10.5595 15.168 17.3667V20.0003H11.044V26.1123H15.168V39.4115C16.7152 39.7955 18.3336 40.0003 19.9992 40.0003C20.8192 40.0003 21.628 39.9499 22.4224 39.8539V26.1123H27.8328H27.8336Z" fill="white"/>
</g>
<defs>
<clipPath id="clip0_173_601">
<rect width="40" height="40" fill="white"/>
</clipPath>
</defs>
</svg>
