<svg width="44" height="46" viewBox="0 0 44 46" fill="none" xmlns="http://www.w3.org/2000/svg">
<path d="M43.1639 33.6464L43.1732 33.6413H43.1551L32.5288 27.8833L21.8849 22.1152L11.2405 27.8833L0.614274 33.6413H0.596191L0.605443 33.6464L0.596191 33.6515H0.614274L11.2405 39.4094L21.8849 45.1775L32.5288 39.4094L43.1551 33.6515H43.1732L43.1639 33.6464Z" fill="#DCD8FF"/>
<path d="M43.1639 11.5312L43.1732 11.5265H43.1551L32.5288 5.76811L21.8849 0L11.2405 5.76811L0.614274 11.5265H0.596191L0.605443 11.5312L0.596191 11.5362H0.614274L11.2405 17.2946L21.8849 23.0627L32.5288 17.2946L43.1551 11.5362H43.1732L43.1639 11.5312Z" fill="#3553D2"/>
<path d="M0.614258 11.0625V34.1151L21.8849 22.589L0.614258 11.0625Z" fill="#C3DFFF"/>
<path d="M43.155 11.0625V34.1151L21.8848 22.589L43.155 11.0625Z" fill="#C3DFFF"/>
</svg>
