<svg width="40" height="40" viewBox="0 0 40 40" fill="none" xmlns="http://www.w3.org/2000/svg">
<path d="M0 40L2.81166 29.7283C1.07666 26.7217 0.165 23.3133 0.166666 19.8183C0.171666 8.89167 9.06331 0 19.9883 0C25.2899 0.00166667 30.2666 2.06667 34.0099 5.81333C37.7516 9.56 39.8116 14.54 39.8099 19.8367C39.8049 30.765 30.9133 39.6567 19.9883 39.6567C16.6716 39.655 13.4033 38.8233 10.5083 37.2433L0 40ZM10.995 33.655C13.7883 35.3133 16.455 36.3067 19.9816 36.3083C29.0616 36.3083 36.4583 28.9183 36.4633 19.8333C36.4666 10.73 29.1049 3.35 19.995 3.34667C10.9083 3.34667 3.51666 10.7367 3.51333 19.82C3.51166 23.5283 4.59832 26.305 6.42332 29.21L4.75832 35.29L10.995 33.655ZM29.9733 24.5483C29.8499 24.3417 29.5199 24.2183 29.0233 23.97C28.5283 23.7217 26.0933 22.5233 25.6383 22.3583C25.1849 22.1933 24.8549 22.11 24.5233 22.6067C24.1933 23.1017 23.2433 24.2183 22.9549 24.5483C22.6666 24.8783 22.3766 24.92 21.8816 24.6717C21.3866 24.4233 19.79 23.9017 17.8983 22.2133C16.4266 20.9 15.4316 19.2783 15.1433 18.7817C14.855 18.2867 15.1133 18.0183 15.36 17.7717C15.5833 17.55 15.855 17.1933 16.1033 16.9033C16.355 16.6167 16.4366 16.41 16.6033 16.0783C16.7683 15.7483 16.6866 15.4583 16.5616 15.21C16.4366 14.9633 15.4466 12.525 15.035 11.5333C14.6316 10.5683 14.2233 10.6983 13.92 10.6833L12.97 10.6667C12.64 10.6667 12.1033 10.79 11.65 11.2867C11.1966 11.7833 9.91664 12.98 9.91664 15.4183C9.91664 17.8567 11.6916 20.2117 11.9383 20.5417C12.1866 20.8717 15.43 25.875 20.3983 28.02C21.58 28.53 22.5033 28.835 23.2216 29.0633C24.4083 29.44 25.4883 29.3867 26.3416 29.26C27.2933 29.1183 29.2716 28.0617 29.6849 26.905C30.0983 25.7467 30.0983 24.755 29.9733 24.5483Z" fill="#25D366"/>
</svg>
