<svg width="188" height="54" viewBox="0 0 188 54" fill="none" xmlns="http://www.w3.org/2000/svg">
<path d="M187.58 36.8032L181.829 29.3389L187.077 25.1253C187.242 25.0071 187.376 24.8502 187.467 24.6684C187.558 24.4865 187.603 24.2851 187.598 24.0817C187.604 23.9167 187.576 23.7522 187.516 23.5986C187.455 23.4449 187.364 23.3053 187.248 23.1885C187.131 23.0718 186.992 22.9803 186.838 22.9199C186.685 22.8595 186.521 22.8314 186.356 22.8374C186.191 22.8288 186.027 22.8569 185.875 22.9195C185.723 22.9821 185.586 23.0777 185.475 23.1995L177.943 29.3389V15.8553C177.937 15.6866 177.899 15.5205 177.83 15.3666C177.761 15.2126 177.662 15.0739 177.539 14.9583C177.416 14.8427 177.272 14.7526 177.114 14.693C176.956 14.6334 176.788 14.6055 176.62 14.611C176.455 14.605 176.291 14.6331 176.137 14.6935C175.984 14.7539 175.845 14.8454 175.728 14.9621C175.611 15.0789 175.52 15.2185 175.46 15.3722C175.4 15.5258 175.371 15.6903 175.377 15.8553V37.6064C175.383 37.7752 175.421 37.9413 175.49 38.0952C175.559 38.2491 175.658 38.3879 175.781 38.5034C175.904 38.619 176.048 38.7092 176.206 38.7688C176.364 38.8284 176.532 38.8562 176.7 38.8508C176.865 38.8567 177.029 38.8287 177.183 38.7682C177.336 38.7078 177.475 38.6164 177.592 38.4996C177.709 38.3829 177.8 38.2433 177.86 38.0896C177.92 37.9359 177.948 37.7714 177.943 37.6064V32.3493L179.706 30.9453L185.514 38.2895C185.636 38.4574 185.792 38.5978 185.971 38.7016C186.151 38.8054 186.35 38.8702 186.556 38.8919C186.721 38.8979 186.885 38.8698 187.039 38.8094C187.192 38.749 187.331 38.6575 187.448 38.5408C187.565 38.424 187.656 38.2844 187.716 38.1308C187.776 37.9771 187.805 37.8126 187.799 37.6476C187.83 37.501 187.828 37.3493 187.794 37.2034C187.759 37.0576 187.692 36.9214 187.598 36.8049L187.58 36.8032ZM167.105 29.5397C165.183 28.8583 163.622 28.2953 163.622 26.9062C163.622 25.517 165.385 25.1401 166.346 25.1401C167.661 25.0693 168.91 25.5516 169.83 26.4651C169.941 26.5867 170.078 26.6822 170.23 26.7448C170.382 26.8074 170.546 26.8355 170.711 26.8272C171.006 26.8201 171.287 26.6993 171.496 26.49C171.705 26.2807 171.826 25.9989 171.833 25.703C171.824 25.4129 171.727 25.1325 171.554 24.8998C170.924 24.1533 170.129 23.565 169.231 23.182C168.334 22.799 167.359 22.6319 166.386 22.6942C163.14 22.6942 161.137 24.3797 161.137 26.9078C161.137 30.0779 163.942 31.0227 166.386 31.9246C168.229 32.5271 169.869 33.0488 169.869 34.4528C169.869 35.8568 167.786 36.6584 166.543 36.6584C165.032 36.7357 163.563 36.1646 162.496 35.0947C162.253 34.8635 161.946 34.71 161.615 34.6536C161.32 34.6607 161.039 34.7814 160.83 34.9907C160.621 35.2 160.5 35.4819 160.493 35.7778C160.502 36.0679 160.599 36.3483 160.773 36.581C161.503 37.4007 162.408 38.0459 163.42 38.4695C164.433 38.893 165.527 39.084 166.622 39.0285C170.308 39.0285 172.472 37.2624 172.472 34.4528C172.472 31.6432 169.547 30.3989 167.104 29.5561L167.105 29.5397ZM151.962 24.964C154.591 24.964 155.905 26.4486 156.009 29.3389H147.476C147.755 26.5293 149.319 24.964 151.962 24.964ZM158.534 29.3389C158.528 27.8447 158.097 26.3831 157.292 25.1253C156.684 24.2982 155.876 23.6396 154.944 23.2114C154.011 22.7833 152.986 22.5996 151.963 22.6778C147.517 22.6778 144.952 25.647 144.952 30.8252C144.952 36.0033 147.476 39.0516 152.323 39.0516C154.281 39.1224 156.19 38.4324 157.652 37.1258C157.79 37.024 157.901 36.891 157.978 36.7377C158.054 36.5843 158.094 36.415 158.092 36.2436C158.085 35.9477 157.965 35.6658 157.756 35.4565C157.547 35.2472 157.266 35.1265 156.97 35.1194C156.716 35.1234 156.473 35.224 156.29 35.4009C155.206 36.2967 153.848 36.7923 152.443 36.8049C149.558 36.8049 147.715 34.8791 147.635 31.788H157.051C158.533 31.6267 158.533 30.2244 158.533 29.3405L158.534 29.3389ZM135.332 36.7209C132.368 36.7209 130.886 34.7952 130.886 30.8614C130.886 26.9276 132.368 25.0018 135.332 25.0018C136.21 25.0501 137.06 25.3274 137.798 25.806C138.536 26.2847 139.136 26.9482 139.539 27.7308V32.3065C139.499 35.0355 137.937 36.7209 135.293 36.7209H135.332ZM140.781 14.5287C140.616 14.5227 140.452 14.5508 140.299 14.6112C140.145 14.6716 140.006 14.7631 139.889 14.8798C139.773 14.9966 139.682 15.1362 139.621 15.2899C139.561 15.4435 139.533 15.608 139.539 15.773V24.3616C138.402 23.2325 136.867 22.5979 135.266 22.5955C130.726 22.5955 128.455 25.3113 128.455 30.7429C128.455 36.2008 130.899 38.9693 135.467 38.9693C140.035 38.9693 142.198 36.4411 142.198 32.2275V15.8537C142.16 15.4947 141.992 15.1619 141.726 14.9179C141.461 14.6739 141.115 14.5355 140.755 14.5287H140.781ZM119.506 22.5938C118.711 22.5591 117.918 22.7076 117.189 23.0277C116.46 23.3479 115.813 23.8312 115.3 24.4406V15.8504C115.305 15.6749 115.275 15.5 115.211 15.3367C115.146 15.1733 115.049 15.025 114.925 14.9008C114.801 14.7766 114.653 14.6792 114.49 14.6146C114.327 14.5501 114.152 14.5197 113.977 14.5254C113.805 14.5184 113.633 14.5485 113.474 14.6137C113.315 14.6789 113.171 14.7777 113.053 14.9034C112.935 15.0291 112.846 15.1787 112.791 15.3421C112.736 15.5056 112.717 15.6789 112.735 15.8504V37.6015C112.729 37.7702 112.757 37.9384 112.816 38.0964C112.876 38.2544 112.966 38.399 113.081 38.5221C113.197 38.6452 113.335 38.7442 113.489 38.8136C113.643 38.883 113.808 38.9214 113.977 38.9265C114.152 38.9322 114.327 38.9018 114.49 38.8373C114.653 38.7727 114.801 38.6753 114.925 38.5511C115.049 38.4269 115.146 38.2786 115.211 38.1152C115.275 37.9519 115.305 37.777 115.3 37.6015V29.4146C115.3 26.4453 116.702 24.9607 119.506 24.9607C122.311 24.9607 123.273 26.205 123.273 29.1743V37.6015C123.267 37.777 123.297 37.9519 123.362 38.1152C123.426 38.2786 123.523 38.4269 123.647 38.5511C123.771 38.6753 123.919 38.7727 124.083 38.8373C124.246 38.9018 124.42 38.9322 124.595 38.9265C124.767 38.9335 124.939 38.9034 125.098 38.8382C125.258 38.773 125.401 38.6742 125.519 38.5485C125.637 38.4228 125.726 38.2732 125.781 38.1097C125.836 37.9463 125.856 37.773 125.838 37.6015V28.7381C125.756 24.6842 123.674 22.5988 119.467 22.5988L119.506 22.5938ZM104.362 29.5364C102.44 28.855 100.879 28.2921 100.879 26.9029C100.879 25.5137 102.642 25.1368 103.603 25.1368C104.918 25.066 106.167 25.5483 107.087 26.4618C107.311 26.6829 107.613 26.8069 107.928 26.8069C108.243 26.8069 108.545 26.6829 108.77 26.4618C108.891 26.3505 108.986 26.2137 109.049 26.0612C109.111 25.9086 109.139 25.7442 109.131 25.5795C109.122 25.2895 109.025 25.0091 108.852 24.7763C108.222 24.0299 107.427 23.4416 106.529 23.0586C105.632 22.6756 104.657 22.5085 103.684 22.5708C100.438 22.5708 98.4353 24.2562 98.4353 26.7844C98.4353 29.9545 101.24 30.8992 103.684 31.8012C105.527 32.4036 107.167 32.9254 107.167 34.3294C107.167 35.7334 105.084 36.5349 103.842 36.5349C102.33 36.6123 100.861 36.0411 99.7943 34.9713C99.5508 34.7401 99.2443 34.5865 98.9135 34.5302C98.6181 34.5373 98.3367 34.658 98.1278 34.8673C97.9188 35.0766 97.7983 35.3584 97.7912 35.6543C97.7999 35.9444 97.8974 36.2248 98.0705 36.4576C98.7802 37.295 99.6646 37.9661 100.661 38.4237C101.658 38.8813 102.743 39.1142 103.84 39.1059C107.526 39.1059 109.69 37.3398 109.69 34.5302C109.69 31.7205 106.765 30.4153 104.321 29.5545L104.362 29.5364ZM89.2974 24.9607C91.9266 24.9607 93.2411 26.4453 93.3447 29.3356H84.7703C85.0497 26.526 86.614 24.9607 89.2563 24.9607H89.2974ZM95.7487 29.3356C95.7425 27.8414 95.3116 26.3799 94.5064 25.122C93.8982 24.2949 93.09 23.6363 92.1578 23.2081C91.2256 22.78 90.2 22.5963 89.1775 22.6745C84.7309 22.6745 82.1658 25.6437 82.1658 30.8219C82.1658 36 84.6898 39.0894 89.4979 39.0894C91.4557 39.1603 93.3651 38.4703 94.8268 37.1637C94.9645 37.0619 95.0762 36.9288 95.1528 36.7755C95.2293 36.6222 95.2685 36.4529 95.2672 36.2814C95.2601 35.9855 95.1396 35.7037 94.9306 35.4944C94.7217 35.2851 94.4403 35.1644 94.1449 35.1573C93.8907 35.1613 93.6475 35.2619 93.4646 35.4387C92.3809 36.3345 91.0229 36.8302 89.6178 36.8427C86.7323 36.8427 84.8903 34.917 84.8098 31.8259H94.2649C95.747 31.6251 95.747 30.2211 95.747 29.3372L95.7487 29.3356ZM80.2285 22.6778C79.3847 22.635 78.5436 22.8034 77.781 23.1678C77.0185 23.5322 76.3586 24.081 75.8608 24.7648V24.0834C75.8608 23.732 75.7214 23.395 75.4734 23.1465C75.2253 22.898 74.8888 22.7584 74.538 22.7584C74.1872 22.7584 73.8507 22.898 73.6027 23.1465C73.3546 23.395 73.2152 23.732 73.2152 24.0834V37.6081C73.2095 37.7836 73.2398 37.9585 73.3043 38.1218C73.3687 38.2852 73.466 38.4335 73.5899 38.5577C73.7139 38.6819 73.862 38.7793 74.0251 38.8439C74.1882 38.9084 74.3628 38.9388 74.538 38.9331C74.7148 38.945 74.8921 38.9188 75.0579 38.8565C75.2238 38.7941 75.3745 38.6969 75.4997 38.5714C75.625 38.4459 75.7221 38.295 75.7843 38.1289C75.8466 37.9627 75.8727 37.7851 75.8608 37.6081V30.1437C75.8608 26.9737 77.5435 25.1269 80.2285 25.1269C80.3932 25.1329 80.5574 25.1048 80.7109 25.0444C80.8643 24.984 81.0036 24.8925 81.1202 24.7758C81.2368 24.659 81.3281 24.5194 81.3884 24.3658C81.4487 24.2121 81.4767 24.0476 81.4708 23.8826C81.4609 23.5596 81.3255 23.2533 81.0935 23.0289C80.8614 22.8044 80.5511 22.6796 80.2285 22.6811V22.6778ZM70.2114 15.4142C65.8437 15.4142 64.2416 18.5037 64.2416 21.3939V23.16H63.4003C63.2211 23.127 63.0368 23.1338 62.8606 23.18C62.6843 23.2263 62.5204 23.3108 62.3804 23.4275C62.2404 23.5443 62.1277 23.6905 62.0504 23.8558C61.9731 24.021 61.933 24.2013 61.933 24.3838C61.933 24.5663 61.9731 24.7465 62.0504 24.9118C62.1277 25.077 62.2404 25.2232 62.3804 25.34C62.5204 25.4568 62.6843 25.5413 62.8606 25.5875C63.0368 25.6337 63.2211 25.6406 63.4003 25.6075H64.281V37.7266C64.2753 37.9021 64.3056 38.077 64.3701 38.2403C64.4345 38.4037 64.5318 38.552 64.6558 38.6762C64.7797 38.8004 64.9279 38.8978 65.0909 38.9624C65.254 39.0269 65.4286 39.0573 65.6038 39.0516C65.7806 39.0635 65.9579 39.0374 66.1238 38.975C66.2896 38.9126 66.4403 38.8154 66.5656 38.6899C66.6908 38.5644 66.7879 38.4135 66.8502 38.2474C66.9124 38.0812 66.9385 37.9037 66.9266 37.7266V25.4857H69.7316C69.9097 25.5165 70.0925 25.508 70.267 25.4606C70.4414 25.4133 70.6035 25.3283 70.7418 25.2117C70.8801 25.095 70.9912 24.9495 71.0675 24.7853C71.1437 24.6211 71.1832 24.4422 71.1832 24.2612C71.1832 24.0801 71.1437 23.9012 71.0675 23.737C70.9912 23.5728 70.8801 23.4273 70.7418 23.3107C70.6035 23.194 70.4414 23.109 70.267 23.0617C70.0925 23.0143 69.9097 23.0058 69.7316 23.0366H66.9184V21.2705C66.9184 19.7068 67.5198 17.7811 70.3232 17.7811C70.4789 17.7918 70.6352 17.7711 70.7828 17.7202C70.9305 17.6693 71.0664 17.5893 71.1826 17.4848C71.3002 17.3813 71.3949 17.2543 71.4609 17.1121C71.5268 16.9698 71.5624 16.8154 71.5654 16.6586C71.5445 16.3215 71.396 16.005 71.1502 15.7738C70.9044 15.5426 70.5798 15.414 70.2426 15.4142H70.2114Z" fill="#4D4D4D"/>
<path d="M26.5647 0.158941H46.5879C47.4732 0.151276 48.3512 0.319991 49.1706 0.655246C49.9901 0.9905 50.7345 1.48558 51.3605 2.1116C51.9866 2.73762 52.4817 3.48204 52.8169 4.30143C53.1522 5.12082 53.3209 5.99877 53.3133 6.88406V26.9067C53.3115 33.9518 50.512 40.7078 45.5303 45.6894C40.5485 50.671 33.7922 53.4704 26.747 53.4722H26.5959C23.1048 53.4761 19.6472 52.792 16.4206 51.4592C13.194 50.1263 10.2617 48.1707 7.79121 45.7042C5.32089 43.2374 3.36122 40.3077 2.02432 37.0828C0.687425 33.8579 -0.000468706 30.401 2.39602e-07 26.91C2.39602e-07 12.1886 11.874 0.314957 26.5663 0.163867L26.5647 0.158941Z" fill="#25C16F"/>
<path d="M26.5477 11.9707C23.3169 11.9707 20.2184 13.2576 17.9339 15.5483C15.6494 17.8391 14.366 20.946 14.366 24.1855V32.4909C14.3901 33.5607 14.8247 34.5799 15.5793 35.3365C16.3339 36.0932 17.3504 36.529 18.4172 36.5532H21.8638V27.0219H17.2094V24.3548C17.4929 19.3312 21.6376 15.4036 26.6558 15.4036C31.674 15.4036 35.8335 19.3476 36.1022 24.3548V27.0219H31.3872V36.5532H34.5011V36.7044C34.4854 37.6963 34.0855 38.6431 33.386 39.3446C32.6865 40.046 31.7422 40.447 30.753 40.4627H27.0328C26.7312 40.4627 26.3985 40.6139 26.3985 40.9179C26.4149 41.2466 26.6886 41.5391 27.0328 41.5539H30.7808C32.061 41.5457 33.2864 41.0321 34.1916 40.1244C35.0968 39.2168 35.609 37.988 35.6171 36.7044V36.402C36.5059 36.1986 37.2989 35.6972 37.8651 34.9807C38.4312 34.2642 38.7367 33.3755 38.731 32.4613V24.3384C38.8998 17.4561 33.4588 11.9707 26.5477 11.9707Z" fill="white"/>
</svg>
