<svg width="96" height="99" viewBox="0 0 96 99" fill="none" xmlns="http://www.w3.org/2000/svg">
<path d="M34.9091 0.818541C30.3248 0.818541 25.7853 1.72149 21.55 3.47584C17.3146 5.23018 13.4662 7.80157 10.2246 11.0432C6.98302 14.2848 4.41164 18.1331 2.65729 22.3685C0.902941 26.6039 -5.90309e-06 31.1433 -6.10348e-06 35.7276L34.9091 35.7276L34.9091 0.818541Z" fill="#3166DE"/>
<path d="M61.0909 29.1818C56.5066 29.1818 51.9671 30.0848 47.7318 31.8391C43.4964 33.5935 39.6481 36.1648 36.4065 39.4065C33.1648 42.6481 30.5935 46.4964 28.8391 50.7318C27.0848 54.9671 26.1818 59.5066 26.1818 64.0909L61.0909 64.0909L61.0909 29.1818Z" fill="#C3DFFF"/>
</svg>
