<svg width="55" height="48" viewBox="0 0 55 48" fill="none" xmlns="http://www.w3.org/2000/svg">
<g clip-path="url(#clip0_1115_1941)">
<path d="M6.50243 31.2688C6.68531 31.1038 6.80353 31.0093 6.90883 30.9036C8.07814 29.7337 9.27331 28.5878 10.402 27.379C11.0633 26.6707 11.8003 26.337 12.7628 26.4019C13.4536 26.4482 13.4499 26.4112 13.4573 25.714C13.4758 24.2197 13.3779 22.7216 13.7196 21.2402C14.6765 17.0926 18.4818 13.924 22.7194 13.8869C28.1503 13.8406 33.5813 13.8721 39.0103 13.8702C39.2135 13.8702 39.4149 13.8702 39.5885 13.8702C39.6365 13.7942 39.6661 13.7683 39.6661 13.7423C39.6439 11.9439 39.6938 10.1399 39.5682 8.34883C39.4629 6.84889 38.7406 5.5566 37.7764 4.40893C37.7154 4.33662 37.6471 4.26802 37.5879 4.19386C37.2591 3.77855 37.2739 3.31318 37.623 2.99428C37.9648 2.68279 38.4488 2.71246 38.809 3.09811C39.836 4.19942 40.4955 5.50283 40.9869 6.9249C41.373 8.04662 41.4505 9.18316 41.445 10.3438C41.4413 11.3487 41.4598 12.3518 41.4358 13.3567C41.4265 13.7442 41.53 13.8851 41.9382 13.8758C43.0964 13.8499 44.2565 13.8591 45.4147 13.8684C50.1123 13.9129 53.9675 17.1371 54.8376 21.7667C54.9484 22.3582 54.9853 22.97 54.989 23.5726C55.0038 26.4408 55.0094 29.3109 54.9927 32.1792C54.9743 35.6722 53.5205 38.4126 50.6295 40.3667C50.358 40.5503 50.2619 40.7542 50.2638 41.075C50.2749 42.8605 50.2785 44.6459 50.2638 46.4296C50.2564 47.4196 49.5212 48.1409 48.6271 47.9703C48.2373 47.8961 47.8346 47.6328 47.5428 47.3473C45.871 45.712 44.2251 44.0526 42.5885 42.3803C42.2744 42.0595 41.9604 41.9242 41.5078 41.926C35.4747 41.9409 29.4397 41.926 23.4066 41.939C20.9294 41.9446 18.7164 41.2382 16.8156 39.6196C16.6826 39.5065 16.5422 39.3915 16.448 39.2487C16.2208 38.902 16.2393 38.5479 16.5238 38.2401C16.8045 37.9361 17.15 37.8804 17.5176 38.0825C17.6284 38.1437 17.7245 38.2309 17.8205 38.3124C19.3593 39.6251 21.1308 40.2722 23.1554 40.2685C29.2846 40.2592 35.4137 40.274 41.5429 40.2537C42.4167 40.2499 43.0891 40.5243 43.6968 41.1547C45.1543 42.6676 46.6524 44.1379 48.1357 45.6249C48.254 45.7435 48.3777 45.8585 48.5902 46.0625C48.6049 45.7769 48.6216 45.6138 48.6216 45.4488C48.6234 43.9822 48.6382 42.5156 48.6179 41.049C48.6049 40.1554 48.9411 39.5046 49.693 39.0077C52.1369 37.3928 53.3394 35.0845 53.3561 32.1606C53.3727 29.3072 53.369 26.4557 53.3561 23.6023C53.3357 18.9856 49.8463 15.5092 45.2448 15.5092C37.9094 15.5092 30.5721 15.5092 23.2367 15.5092C18.589 15.5092 15.1291 18.9597 15.1106 23.6227C15.0995 26.4761 15.1106 29.3276 15.1069 32.181C15.1069 33.2453 15.2787 34.2724 15.6611 35.2662C15.8883 35.8595 15.7239 36.3286 15.2473 36.5029C14.7855 36.6734 14.3736 36.4472 14.1408 35.8799C13.6679 34.7304 13.4666 33.5252 13.4592 32.2886C13.4499 31.0463 13.4462 29.8023 13.4629 28.56C13.4684 28.2041 13.3871 28.0724 12.9937 28.0483C12.3416 28.0094 11.8705 28.2078 11.4124 28.6917C10.1563 30.021 8.8392 31.2929 7.55352 32.5926C7.17853 32.9727 6.75735 33.2212 6.20872 33.1989C5.43657 33.1674 4.85284 32.55 4.84545 31.7045C4.83067 30.238 4.83067 28.7714 4.84545 27.3067C4.84915 26.947 4.73092 26.7319 4.42982 26.5298C1.56104 24.596 0.0610751 21.8872 0.0204356 18.4127C-0.0146621 15.4814 0.00565761 12.5483 0.0148939 9.61516C0.0315191 4.29769 4.24879 0.0259137 9.543 0.0110811C16.9745 -0.0111677 24.406 0.0055189 31.8375 0.0055189C32.9938 0.0055189 34.1096 0.218737 35.1865 0.639611C35.7518 0.860245 35.9808 1.26814 35.8127 1.74278C35.6502 2.20259 35.1902 2.32681 34.6231 2.19703C33.6552 1.97454 32.6706 1.67233 31.6915 1.66676C24.3561 1.62227 17.0207 1.62968 9.6834 1.64822C5.91131 1.65749 2.77468 4.10301 1.89724 7.68878C1.74022 8.33214 1.66449 9.01073 1.6571 9.67449C1.63124 12.5594 1.6257 15.4444 1.65156 18.3293C1.67927 21.2698 2.91877 23.58 5.383 25.1912C6.13483 25.6825 6.4932 26.324 6.47472 27.2214C6.45071 28.3839 6.46918 29.5483 6.47103 30.7126C6.47103 30.8646 6.48581 31.0167 6.49689 31.2688H6.50243Z" fill="#3166DE"/>
<path d="M31.9408 33.5437C32.3435 33.1043 32.7185 32.6964 33.1119 32.2662C32.9383 32.1327 32.8699 32.0697 32.7924 32.0196C31.95 31.482 31.5104 30.7088 31.4937 29.7113C31.4771 28.7083 31.4716 27.7034 31.4937 26.7003C31.5159 25.6602 32.0017 24.8648 32.9106 24.3735C33.2135 24.2103 33.2154 24.0453 33.1396 23.7709C32.4617 21.3031 30.1305 19.5121 27.5591 19.4973C24.9249 19.4824 22.6232 21.2049 21.9047 23.7171C21.816 24.0286 21.8252 24.214 22.1651 24.3994C23.0573 24.887 23.5155 25.6861 23.5432 26.7022C23.569 27.7052 23.569 28.7101 23.5432 29.7132C23.5062 31.2372 22.348 32.396 20.885 32.409C19.4164 32.422 18.2268 31.2947 18.1658 29.7744C18.1252 28.7398 18.1289 27.7015 18.1658 26.6688C18.2046 25.573 18.7496 24.761 19.7415 24.2956C20.0371 24.1565 20.159 23.9841 20.2366 23.68C20.97 20.7747 22.7599 18.8298 25.6564 18.1011C28.6601 17.3447 31.2407 18.2142 33.2819 20.5726C34.0651 21.4774 34.5565 22.5472 34.8132 23.719C34.8724 23.9878 34.9758 24.1491 35.2455 24.2733C36.2947 24.7554 36.8471 25.6009 36.8748 26.7596C36.8988 27.7312 36.8988 28.7046 36.8748 29.6761C36.8452 30.8961 36.2504 31.7434 35.1384 32.2458C34.9462 32.333 34.7375 32.5091 34.6544 32.6964C34.1981 33.7272 33.4832 34.4985 32.4968 35.0344C32.3342 35.1215 32.1901 35.3013 32.1089 35.4719C31.6434 36.4453 30.8472 36.9292 29.8146 37.0201C28.6952 37.1202 27.7364 36.7698 27.0917 35.7982C26.5302 34.9528 26.6927 33.8885 27.4612 33.1469C28.5307 32.1123 30.4519 32.1068 31.5473 33.1358C31.6508 33.2341 31.745 33.3416 31.9445 33.5492L31.9408 33.5437ZM19.8191 28.2244C19.8191 28.2244 19.8173 28.2244 19.8154 28.2244C19.8154 28.686 19.8154 29.1477 19.8154 29.6075C19.8154 29.639 19.8154 29.6705 19.8191 29.7021C19.8542 30.3046 20.2754 30.7459 20.8296 30.7607C21.4004 30.7774 21.8788 30.3306 21.8936 29.7058C21.9157 28.7194 21.9157 27.733 21.8936 26.7467C21.8806 26.1052 21.4355 25.6936 20.8333 25.7028C20.2569 25.7121 19.8431 26.1218 19.821 26.743C19.8025 27.2361 19.8173 27.7293 19.8173 28.2225L19.8191 28.2244ZM33.1378 28.1706C33.1378 28.6805 33.1249 29.1885 33.1415 29.6965C33.1618 30.3028 33.5885 30.7403 34.1464 30.7607C34.695 30.7811 35.1845 30.3584 35.2049 29.7558C35.2381 28.7398 35.2381 27.7201 35.2086 26.704C35.1901 26.0829 34.7412 25.6954 34.1612 25.7028C33.5645 25.7102 33.1581 26.133 33.1396 26.7856C33.1267 27.2473 33.1378 27.7089 33.1378 28.1687V28.1706ZM29.4876 34.0165C28.9168 34.022 28.431 34.3242 28.4199 34.6821C28.4088 35.0436 28.8836 35.3662 29.4562 35.3866C30.0603 35.407 30.5997 35.0789 30.5941 34.6914C30.5886 34.315 30.0898 34.0109 29.4876 34.0183V34.0165Z" fill="#3166DE"/>
<path d="M42.35 22.5008C41.3026 22.5008 40.2571 22.5045 39.2097 22.5008C38.5613 22.499 38.1956 22.206 38.1863 21.6961C38.1771 21.1918 38.5595 20.86 39.182 20.86C41.2749 20.8562 43.3679 20.8544 45.4608 20.86C46.0722 20.86 46.4232 21.1659 46.4306 21.6683C46.438 22.1967 46.087 22.4971 45.4405 22.5008C44.4097 22.5064 43.3789 22.5008 42.3482 22.5008H42.35Z" fill="#3166DE"/>
<path d="M41.5557 24.548C42.3648 24.548 43.172 24.5443 43.9811 24.548C44.5888 24.5536 44.9343 24.8595 44.9306 25.3694C44.9269 25.8811 44.587 26.1815 43.97 26.1852C42.3684 26.1907 40.7687 26.1907 39.1672 26.1852C38.5668 26.1833 38.1974 25.87 38.1863 25.3824C38.1752 24.8688 38.5465 24.5517 39.1782 24.548C39.9707 24.5443 40.7632 24.548 41.5557 24.548Z" fill="#3166DE"/>
<path d="M9.29904 10.7779C9.2935 11.4509 8.75779 11.9774 8.07985 11.9793C7.37975 11.9793 6.85143 11.4379 6.86806 10.7315C6.88284 10.0548 7.42223 9.53935 8.10202 9.55047C8.77072 9.56159 9.30458 10.1085 9.29904 10.7779Z" fill="#3166DE"/>
<path d="M15.4559 9.54834C16.1302 9.54834 16.664 10.073 16.6751 10.7498C16.6862 11.4451 16.1413 11.9864 15.4412 11.979C14.7651 11.9716 14.2441 11.4376 14.2497 10.759C14.2552 10.0805 14.7835 9.55019 15.4578 9.55019L15.4559 9.54834Z" fill="#3166DE"/>
<path d="M11.7799 11.9791C11.1056 11.9791 10.5681 11.4489 10.5625 10.7777C10.557 10.0861 11.1093 9.53919 11.802 9.54846C12.4744 9.55773 12.9935 10.0954 12.9898 10.7758C12.9861 11.4581 12.4634 11.9773 11.7799 11.9773V11.9791Z" fill="#3166DE"/>
</g>
<defs>
<clipPath id="clip0_1115_1941">
<rect width="55" height="48" fill="white"/>
</clipPath>
</defs>
</svg>
