<svg width="52" height="48" viewBox="0 0 52 48" fill="none" xmlns="http://www.w3.org/2000/svg">
<g clip-path="url(#clip0_1122_5086)">
<path d="M25.9964 -0.000287977C33.5565 -0.000287977 41.1157 -0.00206576 48.6759 0.0014898C50.3837 0.0014898 51.6885 1.06638 51.9593 2.66638C51.9982 2.89838 51.9982 3.13838 51.9982 3.37482C52 17.1206 52 30.8664 51.9991 44.6122C51.9991 46.6859 50.6626 47.9953 48.5473 47.9953C33.4732 47.9953 18.3991 47.9944 3.32506 47.9988C2.13793 47.9988 1.1808 47.5819 0.488087 46.6264C0.175685 46.1953 0.020842 45.7242 0.020842 45.1757C0.0308026 31.1197 0.0489129 17.0628 1.51944e-05 3.00593C-0.00541788 1.48416 1.44703 0.015712 2.99998 0.00415647C3.19648 0.00237869 3.39207 0.000600911 3.58856 0.000600911C11.0581 0.000600911 18.5268 0.000600911 25.9964 0.000600911V-0.000287977ZM1.47329 8.94727H2.14427C12.9932 8.94727 23.8431 8.94727 34.692 8.94727C34.8876 8.94727 35.0859 8.94016 35.2797 8.96593C35.679 9.01927 35.9371 9.31349 35.9398 9.69038C35.9425 10.0753 35.699 10.3659 35.2969 10.4264C35.1049 10.4557 34.9057 10.4513 34.7101 10.4513C29.3079 10.4522 23.9065 10.4513 18.5042 10.4522C17.9165 10.4522 17.9156 10.4539 17.9156 11.037C17.9156 22.6646 17.9156 34.2922 17.9156 45.9206C17.9156 46.093 17.9301 46.2664 17.9409 46.4877H18.4661C28.4856 46.4877 38.5052 46.4877 48.5247 46.4877C49.8367 46.4877 50.4652 45.869 50.4652 44.5793C50.4652 33.381 50.4652 22.1828 50.4652 10.9846V10.4522C50.2198 10.4522 50.0287 10.4522 49.8377 10.4522C46.0499 10.4522 42.263 10.4522 38.4753 10.4513C38.2797 10.4513 38.0805 10.453 37.8894 10.4184C37.4901 10.3464 37.29 10.0815 37.29 9.69571C37.29 9.30727 37.5037 9.05216 37.8957 8.97482C38.0705 8.94016 38.2561 8.94727 38.4363 8.94727C42.2386 8.94549 46.0417 8.94638 49.844 8.94638C50.036 8.94638 50.2279 8.94638 50.4317 8.94638C50.4471 8.81927 50.4643 8.74905 50.4643 8.67793C50.4652 6.82638 50.4661 4.97482 50.4625 3.12327C50.4625 2.99171 50.4407 2.85749 50.4054 2.73038C50.1881 1.93127 49.5588 1.50638 48.5917 1.50638C33.5022 1.50638 18.4127 1.50638 3.32325 1.50638C3.2173 1.50638 3.11136 1.50371 3.00632 1.51171C2.20766 1.56771 1.49954 2.17838 1.48506 2.95793C1.44884 4.92593 1.47329 6.89482 1.47329 8.94816V8.94727ZM1.46332 10.4797V10.9722C1.46332 22.1864 1.46332 33.3997 1.46332 44.6139C1.46332 45.8708 2.09809 46.4877 3.39116 46.4877C7.54113 46.4895 11.6911 46.4877 15.8411 46.4877H16.3454V10.4797H1.46332Z" fill="#3166DE"/>
<path d="M21.0994 26.7369V35.392C21.2904 35.392 21.4516 35.392 21.6128 35.392C22.684 35.392 23.7552 35.3858 24.8274 35.3956C25.3236 35.4 25.6577 35.72 25.655 36.1511C25.6523 36.584 25.3218 36.8916 24.8174 36.8942C23.5805 36.9022 22.3426 36.9084 21.1048 36.8916C20.25 36.88 19.6315 36.2925 19.5491 35.4569C19.5374 35.3396 19.5355 35.2204 19.5355 35.1022C19.5355 32.4062 19.5319 29.7102 19.5355 27.0142C19.5374 25.7751 20.1314 25.2018 21.4 25.2018C29.9716 25.2018 38.5423 25.2018 47.1138 25.2018C48.4069 25.2018 48.9919 25.7733 48.9928 27.0453C48.9955 29.712 48.9955 32.3778 48.9928 35.0444C48.9919 36.3164 48.4033 36.8969 47.1193 36.8969C40.7816 36.8969 34.443 36.8969 28.1053 36.8969C27.9994 36.8969 27.8934 36.9004 27.7884 36.8942C27.3067 36.8667 26.9997 36.5796 26.9943 36.1547C26.9888 35.7316 27.2994 35.4249 27.7703 35.3956C27.936 35.3849 28.1026 35.392 28.2683 35.392C34.4702 35.392 40.6729 35.392 46.8748 35.392C47.263 35.392 47.4573 35.1973 47.4579 34.808C47.4579 32.2898 47.4579 29.7716 47.4579 27.2533V26.7369H21.0994Z" fill="#3166DE"/>
<path d="M34.3081 38.9849C38.6074 38.9849 42.9068 38.9849 47.2071 38.9849C48.4513 38.9849 49.0371 39.5582 49.0389 40.7716C49.0389 41.2604 49.0489 41.7493 49.0353 42.2373C49.0118 43.0507 48.425 43.6613 47.601 43.744C47.4217 43.7618 47.2397 43.7609 47.0586 43.7609C38.535 43.7609 30.0114 43.7627 21.4878 43.7573C21.189 43.7573 20.8693 43.7573 20.5968 43.6578C19.9457 43.4231 19.5699 42.9422 19.5446 42.2453C19.5256 41.6978 19.5246 41.1493 19.5391 40.6018C19.5663 39.5849 20.192 38.9849 21.2288 38.9849C25.5889 38.9813 29.9489 38.9831 34.309 38.9831L34.3081 38.9849ZM21.0695 40.5191C21.0695 40.8987 21.0695 41.2507 21.0695 41.6027C21.0695 42.0388 21.2874 42.2572 21.7232 42.2578C30.0947 42.2578 38.4662 42.2578 46.8376 42.2578C46.9735 42.2578 47.1184 42.2853 47.2415 42.2453C47.342 42.2133 47.4869 42.104 47.4905 42.0231C47.5132 41.5262 47.5023 41.0284 47.5023 40.5191H21.0695Z" fill="#3166DE"/>
<path d="M42.091 23.5005C40.4022 23.5005 38.7134 23.5022 37.0237 23.5005C35.8637 23.4987 35.238 22.8862 35.2362 21.7431C35.2326 19.2862 35.2317 16.8285 35.2362 14.3716C35.238 13.2285 35.8646 12.6151 37.0246 12.6142C40.4176 12.6125 43.8105 12.6116 47.2035 12.6142C48.3634 12.6142 48.9892 13.2249 48.9919 14.3725C48.9982 16.8293 48.9982 19.2871 48.9919 21.744C48.9892 22.8907 48.3644 23.4987 47.2026 23.5005C45.4984 23.5031 43.7942 23.5005 42.09 23.5005H42.091ZM42.1272 14.12C40.5136 14.12 38.8999 14.1298 37.2872 14.1129C36.896 14.1085 36.7611 14.2231 36.7629 14.6169C36.7783 16.9111 36.7774 19.2053 36.7629 21.4996C36.7602 21.8889 36.8915 22.0098 37.2854 22.008C40.5117 21.9956 43.739 21.9965 46.9662 22.008C47.342 22.0098 47.4661 21.8889 47.4643 21.5227C47.4525 19.2133 47.4525 16.9049 47.4643 14.5956C47.4661 14.2285 47.3411 14.1093 46.9662 14.1129C45.3526 14.1289 43.7399 14.12 42.1263 14.12H42.1272Z" fill="#3166DE"/>
<path d="M26.3703 12.6124C28.0591 12.6124 29.7488 12.6098 31.4375 12.6133C32.5676 12.616 33.1988 13.2311 33.2015 14.3493C33.2078 16.8213 33.2069 19.2933 33.2015 21.7662C33.1988 22.88 32.5658 23.4987 31.4366 23.4996C28.0591 23.5022 24.6806 23.5022 21.3021 23.4996C20.1675 23.4987 19.54 22.8871 19.5373 21.7644C19.53 19.2924 19.53 16.8204 19.5373 14.3476C19.5409 13.2267 20.1702 12.6151 21.303 12.6124C22.9918 12.6089 24.6806 12.6116 26.3703 12.6116V12.6124ZM31.6685 21.9778C31.6685 21.7636 31.6685 21.5893 31.6685 21.4151C31.6685 19.1787 31.6685 16.9431 31.6685 14.7067C31.6685 14.3161 31.475 14.1206 31.088 14.12C27.935 14.12 24.782 14.12 21.629 14.12H21.1002C21.0884 14.3022 21.0712 14.4462 21.0712 14.5902C21.0694 16.9004 21.0803 19.2107 21.0604 21.5209C21.0567 21.9244 21.1908 22.0116 21.5774 22.0098C24.7603 21.9956 27.9432 22.0018 31.127 22.0009C31.289 22.0009 31.4511 21.9876 31.6685 21.9787V21.9778Z" fill="#3166DE"/>
<path d="M36.6515 4.48533C39.6062 4.48533 42.5618 4.48533 45.5165 4.48533C45.6822 4.48533 45.8497 4.47999 46.0136 4.50044C46.4148 4.55021 46.6393 4.79644 46.6674 5.17777C46.6955 5.56266 46.4954 5.83466 46.1132 5.93866C45.943 5.98488 45.7556 5.98221 45.5754 5.98221C39.6053 5.98399 33.6344 5.98399 27.6643 5.98399C27.619 5.98399 27.5738 5.98399 27.5285 5.98399C26.9082 5.97421 26.556 5.7031 26.5514 5.23466C26.5469 4.76088 26.8919 4.48621 27.5158 4.48533C30.561 4.48266 33.6072 4.48444 36.6524 4.48444L36.6515 4.48533Z" fill="#3166DE"/>
<path d="M6.75064 7.73778C5.34076 7.72978 4.19709 6.59467 4.20524 5.21067C4.2143 3.83022 5.37879 2.704 6.78596 2.71378C8.20218 2.72356 9.33679 3.85511 9.32592 5.24533C9.31505 6.63911 8.17139 7.74578 6.74974 7.73778H6.75064ZM7.79017 5.24889C7.80104 4.68978 7.34285 4.22222 6.77781 4.216C6.22363 4.20978 5.7419 4.68089 5.74099 5.22844C5.74099 5.768 6.18198 6.21156 6.73434 6.22578C7.3184 6.24089 7.7793 5.81422 7.79017 5.24889Z" fill="#3166DE"/>
<path d="M12.8365 7.73776C11.4176 7.72799 10.2902 6.60176 10.302 5.20621C10.3137 3.81154 11.461 2.70221 12.8791 2.71288C14.2908 2.72443 15.4245 3.85688 15.4172 5.24799C15.41 6.6311 14.2536 7.74665 12.8356 7.73688L12.8365 7.73776ZM13.8824 5.22132C13.8787 4.67021 13.397 4.20532 12.841 4.21688C12.2742 4.22843 11.8214 4.69688 11.8359 5.25599C11.8504 5.80176 12.2941 6.22488 12.8546 6.22665C13.4305 6.22932 13.8869 5.7831 13.8833 5.22132H13.8824Z" fill="#3166DE"/>
<path d="M18.9434 7.73778C17.5271 7.73778 16.3844 6.61511 16.3871 5.22578C16.3898 3.83289 17.5317 2.712 18.9452 2.71289C20.3569 2.71289 21.5051 3.84178 21.5051 5.22845C21.5051 6.616 20.3605 7.73689 18.9424 7.73778H18.9434ZM18.9497 6.22667C19.5247 6.224 19.9793 5.77156 19.9684 5.21156C19.9584 4.67645 19.503 4.22667 18.9606 4.21689C18.3982 4.20711 17.9319 4.66134 17.9283 5.22222C17.9247 5.79467 18.3674 6.23022 18.9497 6.22756V6.22667Z" fill="#3166DE"/>
<path d="M8.92208 28.7182C7.29216 28.7182 5.66314 28.7209 4.03322 28.7173C3.45459 28.7156 3.10959 28.424 3.11593 27.9636C3.12136 27.5084 3.47451 27.216 4.05042 27.216C7.29487 27.2124 10.5393 27.2133 13.7829 27.216C14.3543 27.216 14.683 27.472 14.7119 27.9138C14.7445 28.3982 14.4222 28.7138 13.8562 28.7164C12.2118 28.7227 10.5665 28.7191 8.92208 28.7191V28.7182Z" fill="#3166DE"/>
<path d="M8.9356 14.6542C7.36725 14.6542 5.7989 14.6542 4.22964 14.6533C4.06484 14.6533 3.89551 14.6533 3.73523 14.6213C3.34405 14.5431 3.1385 14.2862 3.11949 13.9031C3.10138 13.5387 3.38027 13.2311 3.76964 13.1662C3.88736 13.1467 4.00961 13.1484 4.13004 13.1484C7.32741 13.1484 10.5248 13.1493 13.7221 13.1458C14.1613 13.1458 14.5489 13.2258 14.6883 13.6969C14.8404 14.2089 14.4773 14.6382 13.8661 14.648C12.8556 14.6649 11.845 14.6542 10.8345 14.6542C10.2006 14.6542 9.56765 14.6542 8.93379 14.6542H8.9356Z" fill="#3166DE"/>
<path d="M8.88306 24.0231C7.23865 24.0231 5.59424 24.0276 3.94982 24.0196C3.43821 24.0169 3.11494 23.7129 3.11585 23.2773C3.11585 22.8676 3.43368 22.5627 3.90817 22.5236C4.04309 22.512 4.17982 22.5182 4.31565 22.5182C6.91085 22.5182 9.50515 22.5182 12.1003 22.5182C12.7034 22.5182 13.3074 22.5049 13.9105 22.5253C14.4203 22.5431 14.7245 22.8587 14.7128 23.3022C14.701 23.7351 14.4076 23.9982 13.9068 24.0204C13.7864 24.0258 13.6651 24.0222 13.5446 24.0222C11.9908 24.0222 10.4369 24.0222 8.88306 24.0222V24.0231Z" fill="#3166DE"/>
<path d="M8.92925 19.3342C7.33012 19.3342 5.73189 19.3404 4.13275 19.3289C3.90003 19.3271 3.60574 19.312 3.45271 19.1778C3.27704 19.024 3.11495 18.712 3.15208 18.504C3.19373 18.2755 3.44546 18.0595 3.65283 17.896C3.76149 17.8107 3.97157 17.8347 4.13547 17.8347C7.31744 17.832 10.5003 17.832 13.6823 17.8329C13.743 17.8329 13.8027 17.832 13.8634 17.8347C14.4103 17.8631 14.7245 18.152 14.7119 18.6124C14.6992 19.0595 14.4031 19.328 13.8607 19.3307C12.2172 19.3395 10.5728 19.3342 8.92835 19.3342H8.92925Z" fill="#3166DE"/>
</g>
<defs>
<clipPath id="clip0_1122_5086">
<rect width="52" height="48" fill="white"/>
</clipPath>
</defs>
</svg>
