<svg width="57" height="57" viewBox="0 0 57 57" fill="none" xmlns="http://www.w3.org/2000/svg">
<g clip-path="url(#clip0_1115_1869)">
<path d="M54.9907 50.1181H54.2908C48.3587 50.1181 42.4276 50.1181 36.4954 50.1181C36.2962 50.1181 36.0938 50.1061 35.8978 50.1345C35.4135 50.2043 35.0826 50.5875 35.0673 51.0678C35.0521 51.5711 35.3841 51.9892 35.8859 52.0678C36.0807 52.0984 36.2843 52.0853 36.4834 52.0853C42.433 52.0853 48.3826 52.0853 54.3333 52.0853H54.9624V55.0285H54.2647C47.0993 55.0285 39.9339 55.0285 32.7696 55.0296C32.0272 55.0296 31.5821 55.3975 31.5744 55.999C31.5668 56.6059 32.0131 56.9946 32.7435 56.9957C40.1266 56.9979 47.5097 56.999 54.8917 56.9957C56.1358 56.9957 56.9532 56.1878 56.9685 54.9619C56.9794 54.0339 57.0414 53.0995 56.9478 52.1803C56.8727 51.4456 56.8803 50.7392 56.95 50.0067C57.036 49.105 56.9772 48.1891 56.9685 47.2797C56.9576 46.0199 56.1434 45.2153 54.8754 45.2055C54.2832 45.2011 53.69 45.2055 53.0522 45.2055V42.2612C53.7379 42.2612 54.3355 42.2678 54.933 42.2602C56.138 42.2438 56.9522 41.4381 56.9674 40.2384C56.9794 39.3836 56.9707 38.5277 56.9696 37.6729C56.9674 36.1205 56.2218 35.3804 54.6566 35.3804C48.0169 35.3804 41.3783 35.3804 34.7386 35.3804C33.808 35.3804 33.341 35.7166 33.3508 36.3771C33.3595 37.0332 33.8189 37.3487 34.7658 37.3487C41.2967 37.3487 47.8264 37.3487 54.3572 37.3487H54.9722V40.2918C54.723 40.2918 54.5085 40.2918 54.2941 40.2918C48.5981 40.2918 42.9022 40.2918 37.2062 40.2918C37.007 40.2918 36.8045 40.2798 36.6086 40.3071C36.1319 40.3715 35.7857 40.7656 35.7672 41.2351C35.7476 41.7263 36.0916 42.1619 36.5836 42.2405C36.7784 42.2722 36.982 42.2602 37.1812 42.2602C41.5895 42.2602 45.9967 42.2602 50.405 42.2602C50.6162 42.2602 50.8284 42.2602 51.0472 42.2602V45.2033H50.356C46.1295 45.2033 41.9029 45.2033 37.6764 45.2033C37.4946 45.2033 37.3118 45.1924 37.1333 45.2186C36.6554 45.2885 36.3104 45.6793 36.2919 46.1487C36.2723 46.6378 36.6162 47.0701 37.1126 47.152C37.3074 47.1836 37.511 47.1716 37.7102 47.1716C43.2614 47.1716 48.8115 47.1716 54.3627 47.1716H54.9918V50.1148L54.9907 50.1181Z" fill="#3166DE"/>
<path d="M11.7947 27.4404C11.0567 27.519 10.3089 27.5452 9.58181 27.685C1.32466 29.2755 -2.66023 38.6902 1.94183 45.7458C3.48854 48.1169 5.64372 49.7075 8.34313 50.547C8.94288 50.7336 9.47623 50.4531 9.63841 49.8963C9.80168 49.3374 9.48602 48.8308 8.87757 48.6638C8.65117 48.6016 8.42368 48.5361 8.20598 48.4488C4.10788 46.8091 1.67624 42.7502 2.10183 38.2688C2.63192 32.6936 8.06557 28.6107 13.5493 29.6598C15.1842 29.9731 16.6525 30.6391 17.9609 31.6718C18.4463 32.055 18.9133 32.0703 19.3019 31.7591C19.8243 31.341 19.7786 30.615 19.18 30.1314C17.027 28.3913 14.5659 27.5059 11.7936 27.4404H11.7947Z" fill="#3166DE"/>
<path d="M12.2508 31.4141C8.8689 31.5483 6.51344 32.7907 5.02441 35.4042C3.50382 38.0733 3.59634 40.7894 5.1387 43.4411C5.68512 44.38 6.43181 45.1496 7.3298 45.7588C7.77825 46.0633 8.27786 45.9978 8.60766 45.6147C8.93094 45.2391 8.96033 44.8177 8.68277 44.4116C8.56412 44.2381 8.37364 44.1092 8.20493 43.975C6.20758 42.3931 5.42497 39.7873 6.23915 37.4183C7.32218 34.2666 10.6409 32.6902 13.8606 33.7961C14.5692 34.0396 15.1124 33.8562 15.3224 33.3016C15.5358 32.7415 15.2637 32.187 14.5518 31.9719C13.6745 31.7066 12.7689 31.5374 12.2508 31.4162V31.4141Z" fill="#3166DE"/>
<path d="M32.479 10.741C32.3244 11.3709 32.197 12.0095 32.0044 12.6274C31.9195 12.8981 31.9358 13.0499 32.1611 13.2256C34.0322 14.6939 35.8968 16.1699 37.757 17.6524C37.9801 17.8303 38.1357 17.8293 38.3698 17.6579C39.6737 16.707 41.1171 16.4898 42.6572 16.9221C42.9686 17.0094 43.1394 16.9603 43.3212 16.6786C44.9888 14.0782 46.6639 11.4822 48.3587 8.90039C48.5916 8.54559 48.5557 8.33708 48.2955 8.01831C47.0155 6.45283 46.8272 4.33715 47.772 2.5992C48.7364 0.826304 50.6804 -0.20206 52.6255 0.0326516C54.6054 0.270638 56.2512 1.64179 56.7802 3.55223C57.282 5.36224 56.8923 6.99649 55.585 8.33926C54.28 9.67985 52.6734 10.1318 50.8502 9.65146C50.4812 9.5543 50.2809 9.57941 50.0578 9.93093C48.4185 12.5062 46.7597 15.0695 45.09 17.624C44.8712 17.9592 44.8342 18.1753 45.1128 18.5148C46.5093 20.2179 46.603 22.5355 45.3915 24.3531C44.1963 26.1468 41.9421 26.9437 39.8327 26.3204C37.7885 25.7167 36.3343 23.8455 36.3321 21.6971C36.3321 21.0574 36.5183 20.4089 36.687 19.7834C36.7621 19.5039 36.7371 19.3609 36.5183 19.1884C34.6483 17.7179 32.7837 16.2419 30.9257 14.7584C30.6982 14.5771 30.5469 14.5979 30.3129 14.7584C28.4614 16.0334 26.4945 16.0334 24.6354 14.7529C24.3927 14.5859 24.2414 14.5891 24.0226 14.7638C22.1624 16.2463 20.3011 17.7277 18.4246 19.1884C18.122 19.4242 18.2178 19.6229 18.3158 19.8882C19.5675 23.2767 16.9334 26.7996 13.3589 26.5256C11.355 26.3717 9.61016 24.9339 9.05068 22.9743C8.48903 21.0093 9.20633 18.8915 10.8423 17.6841C12.5142 16.4505 14.6944 16.3533 16.3935 17.5181C16.8583 17.8369 17.1152 17.7605 17.5016 17.4483C19.2094 16.0673 20.9335 14.7049 22.6686 13.3577C23.0071 13.0946 23.092 12.8894 22.9222 12.4625C22.2005 10.6373 22.6707 8.52485 24.1053 7.19954C25.6521 5.76944 27.4513 5.43648 29.3997 6.22031C31.2316 6.9561 32.3788 8.74209 32.4811 10.7388L32.479 10.741ZM41.2052 18.684C39.6182 18.6677 38.2729 19.9788 38.2533 21.5617C38.2326 23.1927 39.5301 24.5453 41.1367 24.5671C42.8564 24.5911 44.2116 23.3171 44.2279 21.6611C44.2442 19.9995 42.9272 18.7026 41.2052 18.684ZM52.1161 1.9824C50.528 1.95401 49.1707 3.25421 49.1391 4.83496C49.1064 6.46703 50.393 7.83163 51.9974 7.86438C53.6171 7.89822 54.9777 6.59475 55.0038 4.98343C55.0299 3.35792 53.7346 2.01078 52.1161 1.9824ZM24.5385 10.8032C24.5396 12.4309 25.8589 13.7606 27.4709 13.7606C29.0873 13.7606 30.4109 12.4265 30.4043 10.8054C30.3978 9.1875 29.0688 7.87311 27.4437 7.87639C25.86 7.88075 24.5375 9.2137 24.5385 10.8021V10.8032ZM10.8238 21.6087C10.8238 23.2374 12.1419 24.5671 13.754 24.5671C15.3704 24.5671 16.6939 23.2353 16.6896 21.6141C16.6841 19.9973 15.3551 18.6808 13.7311 18.684C12.1474 18.6873 10.8238 20.0192 10.8249 21.6087H10.8238Z" fill="#3166DE"/>
<path d="M54.9907 50.1182V47.175H54.3616C48.8104 47.175 43.2603 47.175 37.7091 47.175C37.5099 47.175 37.3063 47.1882 37.1115 47.1554C36.6151 47.0746 36.2712 46.6412 36.2908 46.1521C36.3093 45.6827 36.6543 45.2919 37.1322 45.222C37.3107 45.1958 37.4946 45.2067 37.6753 45.2067C41.9018 45.2067 46.1284 45.2067 50.3549 45.2067H51.0461V42.2636C50.8273 42.2636 50.6162 42.2636 50.4039 42.2636C45.9956 42.2636 41.5884 42.2636 37.1801 42.2636C36.9809 42.2636 36.7784 42.2756 36.5825 42.2439C36.0905 42.1653 35.7465 41.7297 35.7661 41.2385C35.7846 40.768 36.1319 40.375 36.6075 40.3106C36.8034 40.2833 37.0059 40.2953 37.2051 40.2953C42.9011 40.2953 48.597 40.2953 54.293 40.2953C54.5074 40.2953 54.7219 40.2953 54.9711 40.2953V37.3521H54.3561C47.8253 37.3521 41.2956 37.3521 34.7647 37.3521C33.8178 37.3521 33.3595 37.0366 33.3497 36.3805C33.3399 35.7189 33.8069 35.3838 34.7375 35.3838C41.3772 35.3838 48.0158 35.3838 54.6555 35.3838C56.2207 35.3838 56.9663 36.1239 56.9685 37.6763C56.9696 38.5311 56.9772 39.387 56.9663 40.2418C56.95 41.4415 56.1358 42.2472 54.9319 42.2636C54.3344 42.2712 53.7368 42.2647 53.0511 42.2647V45.2089C53.69 45.2089 54.2821 45.2046 54.8743 45.2089C56.1423 45.2188 56.9565 46.0233 56.9674 47.2831C56.975 48.1925 57.0338 49.1084 56.9489 50.0101C56.8792 50.7427 56.8727 51.4501 56.9467 52.1837C57.0403 53.1018 56.9783 54.0374 56.9674 54.9653C56.9532 56.1912 56.1358 56.9991 54.8906 56.9991C47.5075 57.0035 40.1244 57.0024 32.7424 56.9991C32.012 56.9991 31.5657 56.6094 31.5733 56.0024C31.581 55.4009 32.0251 55.033 32.7685 55.033C39.9339 55.0308 47.0993 55.0319 54.2636 55.0319H54.9613V52.0887H54.3322C48.3826 52.0887 42.433 52.0887 36.4823 52.0887C36.2832 52.0887 36.0807 52.1018 35.8848 52.0712C35.383 51.9926 35.051 51.5734 35.0662 51.0713C35.0815 50.5909 35.4124 50.2077 35.8967 50.1379C36.0927 50.1095 36.2951 50.1215 36.4943 50.1215C42.4265 50.1215 48.3576 50.1215 54.2897 50.1215H54.9896L54.9907 50.1182Z" fill="#3166DE"/>
<path d="M34.3304 45.2111C34.3086 51.7459 29.0393 57.0144 22.5422 56.9958C16.0201 56.9783 10.8052 51.6826 10.8194 45.091C10.8335 38.6457 16.1583 33.3969 22.6641 33.4166C29.0905 33.4362 34.3521 38.7549 34.3304 45.21V45.2111ZM22.6151 35.387C17.1554 35.3958 12.7851 39.7734 12.783 45.2373C12.7808 50.6368 17.1945 55.0319 22.6184 55.0308C27.9552 55.0297 32.3635 50.6127 32.3678 45.2624C32.3722 39.816 27.9911 35.3783 22.6151 35.387Z" fill="#3166DE"/>
<path d="M11.7947 27.4404C14.5681 27.5059 17.0281 28.3913 19.1811 30.1314C19.7797 30.615 19.8254 31.341 19.303 31.7591C18.9144 32.0703 18.4474 32.055 17.962 31.6718C16.6536 30.6401 15.1853 29.9731 13.5504 29.6598C8.06667 28.6096 2.63302 32.6936 2.10293 38.2688C1.67625 42.7491 4.10898 46.8091 8.20708 48.4488C8.42477 48.5361 8.65226 48.6016 8.87867 48.6638C9.48712 48.8308 9.80278 49.3374 9.63951 49.8963C9.47733 50.452 8.94398 50.7326 8.34423 50.547C5.64482 49.7086 3.48964 48.1169 1.94292 45.7458C-2.65913 38.6902 1.32576 29.2745 9.58291 27.685C10.3089 27.5452 11.0578 27.519 11.7958 27.4404H11.7947Z" fill="#3166DE"/>
<path d="M12.2508 31.4143C12.7689 31.5366 13.6745 31.7047 14.5518 31.97C15.2637 32.185 15.5358 32.7407 15.3224 33.2996C15.1113 33.8542 14.5692 34.0376 13.8606 33.7942C10.6409 32.6883 7.32327 34.2658 6.23915 37.4164C5.42497 39.7853 6.20758 42.3912 8.20493 43.973C8.37473 44.1073 8.56412 44.2361 8.68277 44.4097C8.96033 44.8169 8.93094 45.2372 8.60766 45.6127C8.27786 45.9959 7.77825 46.0614 7.3298 45.7568C6.43181 45.1477 5.68403 44.378 5.1387 43.4392C3.59634 40.7875 3.50382 38.0714 5.02441 35.4022C6.51344 32.7887 8.8689 31.5464 12.2508 31.4121V31.4143Z" fill="#3166DE"/>
<path d="M14.7368 45.197C14.7368 40.8543 18.2602 37.3423 22.613 37.3467C26.8842 37.3511 30.4075 40.8816 30.4119 45.1631C30.4163 49.532 26.9135 53.0724 22.5901 53.068C18.2406 53.0636 14.7368 49.5528 14.7368 45.197ZM22.5814 39.3161C19.3356 39.3183 16.6972 41.9645 16.7004 45.2133C16.7037 48.4404 19.3345 51.0921 22.539 51.0997C25.8109 51.1073 28.4537 48.4567 28.4483 45.174C28.4429 41.9623 25.7902 39.3128 22.5814 39.3161Z" fill="#3166DE"/>
<path d="M23.6143 41.2799C23.9583 41.2799 24.2674 41.2625 24.5733 41.2843C25.1164 41.3236 25.4963 41.7221 25.5094 42.2351C25.5235 42.7679 25.1328 43.2133 24.5678 43.234C23.807 43.2624 23.0451 43.2493 22.2831 43.2428C21.9163 43.2406 21.6007 43.3214 21.617 43.7591C21.6322 44.162 21.9403 44.2329 22.281 44.2242C22.589 44.2165 22.897 44.2209 23.2051 44.2198C24.5167 44.2165 25.5627 45.0768 25.738 46.3017C25.9186 47.5669 25.2035 48.6586 23.955 49.0669C23.7831 49.1237 23.5915 49.2776 23.5153 49.437C23.3139 49.8573 23.0255 50.1193 22.5564 50.1127C22.0872 50.1051 21.7846 49.8409 21.6301 49.402C21.6018 49.3213 21.5756 49.2383 21.5419 49.1368C21.2132 49.1368 20.9051 49.152 20.5993 49.1335C20.03 49.0975 19.6349 48.6848 19.6371 48.1521C19.6392 47.6171 20.0333 47.1968 20.6058 47.1794C21.3667 47.1564 22.1286 47.1674 22.8905 47.1728C23.241 47.175 23.5316 47.08 23.5316 46.6816C23.5316 46.2831 23.241 46.1838 22.8905 46.1914C22.5095 46.199 22.1286 46.2034 21.7487 46.1936C20.5851 46.1641 19.5903 45.2853 19.4118 44.1379C19.2235 42.9229 19.9146 41.7635 21.0641 41.3967C21.3612 41.3018 21.556 41.1839 21.7258 40.8749C21.8717 40.6096 22.2712 40.3422 22.5618 40.3389C22.8524 40.3356 23.1605 40.6402 23.4326 40.8476C23.5305 40.9219 23.5447 41.1063 23.6133 41.281L23.6143 41.2799Z" fill="#3166DE"/>
</g>
<defs>
<clipPath id="clip0_1115_1869">
<rect width="57" height="57" fill="white"/>
</clipPath>
</defs>
</svg>
