<svg width="61" height="55" viewBox="0 0 61 55" fill="none" xmlns="http://www.w3.org/2000/svg">
<g clip-path="url(#clip0_1115_1834)">
<path d="M57.6453 39.8881V33.434C56.684 33.434 55.7461 33.4364 54.8082 33.434C53.9406 33.4304 53.4106 33.0028 53.4279 32.3296C53.4452 31.6779 53.9579 31.279 54.7984 31.2754C55.9446 31.2718 57.0895 31.2754 58.4489 31.2754C57.7181 30.8586 57.6614 30.3315 57.6675 29.7517C57.6872 28.0556 57.6798 26.3582 57.6725 24.662C57.6651 22.8508 56.3537 21.5811 54.4792 21.5799C48.8925 21.5751 43.3058 21.5787 37.7191 21.5775C37.5133 21.5775 37.3075 21.5859 37.1029 21.5727C36.4583 21.532 36.006 21.09 35.9999 20.5066C35.9949 19.9233 36.4435 19.4681 37.0819 19.4225C37.2656 19.4094 37.4517 19.4166 37.6366 19.4166C41.2304 19.4166 44.8254 19.4166 48.4192 19.4166C48.6435 19.4166 48.8666 19.4166 49.2856 19.4166C46.9563 17.0148 44.733 14.7245 42.4579 12.3779C42.0364 12.8055 41.6568 13.1889 41.2809 13.5758C38.8838 16.0434 36.4879 18.511 34.0908 20.9786C33.9922 21.0804 33.8948 21.1846 33.7864 21.2744C33.3094 21.6685 32.7055 21.6757 32.2754 21.2972C31.8268 20.9019 31.7738 20.2802 32.1879 19.7879C32.4985 19.4178 32.8559 19.0836 33.1948 18.7362C35.9308 15.9212 38.6656 13.105 41.4029 10.2912C42.1855 9.48745 42.7253 9.49703 43.5153 10.3152C45.3147 12.1779 47.1141 14.0405 48.911 15.9044C49.0367 16.035 49.1513 16.1739 49.2129 16.2422C49.9327 15.5894 50.6105 14.9737 51.3081 14.34C47.3039 10.5152 43.2972 6.68804 39.2905 2.86086C39.3201 2.80216 39.3497 2.74227 39.378 2.68357C39.2326 2.81174 39.0822 2.93393 38.9442 3.06928C32.9039 8.99752 26.865 14.9282 20.8247 20.8576C20.6941 20.9858 20.5696 21.1187 20.4303 21.2373C19.9238 21.6697 19.3137 21.6853 18.8787 21.2804C18.4387 20.8708 18.419 20.1964 18.8824 19.722C19.6169 18.9698 20.381 18.2426 21.1328 17.506C26.8896 11.8664 32.6464 6.22566 38.4031 0.586109C39.1931 -0.187712 39.691 -0.191306 40.4847 0.586109C44.8254 4.83614 49.1636 9.08736 53.5006 13.341C54.2931 14.1184 54.2857 14.5724 53.4858 15.369C52.6416 16.2099 51.7949 17.0472 50.8952 17.9396C51.3648 18.4211 51.7826 18.8835 52.2448 19.2992C52.368 19.4106 52.6231 19.4058 52.8191 19.4154C53.7607 19.4597 54.7207 19.389 55.6401 19.5447C58.1038 19.9616 59.8687 22.0626 59.8921 24.5027C59.9093 26.2791 59.8835 28.0556 59.9032 29.832C59.9093 30.4345 59.7836 30.9388 59.1119 31.2623C59.8403 31.6456 59.9106 32.2421 59.9044 32.9105C59.8822 35.4452 59.8847 37.9811 59.9032 40.5158C59.9081 41.1494 59.8329 41.71 59.0725 42.0598C59.8613 42.4144 59.9106 43.0049 59.9019 43.6542C59.881 45.3911 59.8748 47.128 59.9019 48.8637C59.9229 50.2364 59.8884 51.584 58.8334 52.8394C59.2796 52.8394 59.5753 52.8274 59.8699 52.8418C60.5502 52.8765 61.0148 53.3365 60.9976 53.9438C60.9816 54.5284 60.5305 54.9836 59.8748 54.9896C57.9448 55.0063 56.0136 55.0063 54.0836 54.9896C53.4242 54.9836 52.983 54.5332 52.9707 53.9402C52.9571 53.3221 53.4008 52.9268 54.0971 52.8286C54.6998 52.7448 55.3308 52.6633 55.8768 52.4249C57.0612 51.9099 57.6983 51.0079 57.6786 49.6866C57.649 47.6107 57.6798 45.5348 57.6638 43.4589C57.6601 42.9247 57.7735 42.4731 58.3675 42.0946C58.041 42.0802 57.8302 42.0622 57.6207 42.0622C55.0325 42.0598 52.4444 42.0957 49.8575 42.049C47.6083 42.0095 45.9161 40.9733 44.9314 39.01C43.9553 37.0659 44.1993 35.1745 45.4897 33.416C45.6438 33.2064 45.8262 33.0111 46.0184 32.8327C46.4991 32.3882 47.1215 32.3655 47.5676 32.7596C48.0199 33.1597 48.031 33.7382 47.6613 34.2749C47.3125 34.7816 46.8922 35.2871 46.7209 35.8561C46.1355 37.799 47.607 39.8162 49.6899 39.8725C52.315 39.942 54.945 39.8893 57.6441 39.8893L57.6453 39.8881Z" fill="#3166DE"/>
<path d="M2.2184 52.8352C2.2184 51.623 2.16294 50.5066 2.24304 49.3985C2.28125 48.8655 2.53267 48.3289 2.77053 47.8329C2.9024 47.5562 2.93814 47.3981 2.80381 47.0915C2.53637 46.4829 2.35889 45.8265 2.23072 45.1737C2.14691 44.7508 2.23072 44.298 2.211 43.8596C2.1617 42.8175 2.28618 41.8256 3.02072 41.0267C1.81908 39.2969 2.01627 37.4103 2.45749 35.6279C2.66331 34.7966 2.63743 34.2048 2.46735 33.3831C2.18389 32.0151 2.22333 30.525 2.4464 29.1343C2.65098 27.8573 4.072 27.0044 5.43632 26.9649C5.73827 26.9565 6.04145 26.9637 6.34216 26.9637C6.39516 25.8641 6.35449 24.8219 6.51101 23.8073C6.87951 21.4068 8.99316 19.6244 11.4864 19.5238C12.7583 19.4723 14.0314 19.4435 15.3033 19.4208C16.134 19.4064 16.6393 19.834 16.6319 20.5048C16.6245 21.1481 16.1389 21.5542 15.3415 21.5757C14.1103 21.6105 12.8778 21.632 11.6479 21.6775C9.92612 21.741 8.64314 23.0108 8.6074 24.6818C8.59138 25.4161 8.60494 26.1516 8.60494 26.9601H9.29634C12.7657 26.9601 16.2363 26.9589 19.7056 26.9601C21.9067 26.9613 23.2834 28.2957 23.292 30.4279C23.2933 30.8472 23.292 31.2665 23.292 31.6857C23.292 33.1507 23.2538 33.2873 22.5427 34.424C23.6309 36.6545 23.6346 38.8094 22.5427 41.0458C23.6765 42.6414 23.4917 44.5244 23.0505 46.3116C22.8459 47.1394 22.8582 47.7335 23.0357 48.5612C23.3278 49.9256 23.2822 51.4181 23.0628 52.8101C22.8619 54.0846 21.4409 54.9818 20.079 54.9854C13.796 55.001 7.51299 54.995 1.22997 54.9902C0.488039 54.9902 0.00861703 54.5542 -1.01023e-05 53.9265C-0.00863724 53.276 0.481877 52.8496 1.26325 52.834C1.60957 52.828 1.95465 52.834 2.2184 52.834V52.8352ZM12.7916 29.1211C10.4302 29.1211 8.06882 29.1175 5.70746 29.1235C4.87186 29.1259 4.45406 29.526 4.43927 30.3273C4.42817 30.9059 4.43434 31.4845 4.4368 32.0642C4.44173 33.0656 4.8164 33.4286 5.85288 33.4286C9.28279 33.4298 12.7115 33.4286 16.1414 33.4286C16.3472 33.4286 16.5542 33.4166 16.7563 33.4418C17.327 33.5125 17.7337 33.9569 17.7411 34.4959C17.7485 35.0325 17.3479 35.4913 16.7822 35.5716C16.5801 35.6003 16.3731 35.5884 16.1672 35.5884C12.6967 35.5884 9.22609 35.5872 5.75552 35.5907C4.84597 35.5907 4.44666 35.9848 4.43803 36.8701C4.43187 37.4882 4.42817 38.1075 4.43927 38.7268C4.45282 39.4563 4.79914 39.8132 5.54354 39.8995C6.22385 39.9773 6.64165 40.3822 6.64781 40.9668C6.65397 41.5501 6.23864 41.967 5.56449 42.0544C4.82133 42.1515 4.45282 42.5468 4.43803 43.2918C4.42694 43.8309 4.43434 44.3699 4.43557 44.9089C4.43803 46.0266 4.78805 46.3644 5.94408 46.3656C7.85438 46.3656 9.76344 46.3608 11.6737 46.3691C12.4181 46.3727 12.9 46.7992 12.9123 47.4245C12.9247 48.0725 12.4305 48.5073 11.6565 48.5253C11.4926 48.5289 11.3274 48.5253 11.1635 48.5253C9.33578 48.5253 7.50806 48.5205 5.68034 48.5277C4.88171 48.5313 4.45529 48.935 4.43927 49.6968C4.42571 50.3556 4.42448 51.0145 4.43927 51.6721C4.45652 52.4088 4.87802 52.828 5.63104 52.8292C10.3747 52.8364 15.1184 52.8352 19.8621 52.8292C20.6176 52.8292 21.0453 52.4124 21.0638 51.6817C21.0798 51.0636 21.0736 50.4443 21.0662 49.8262C21.0564 49.0416 20.7162 48.6595 19.9237 48.5241C19.2348 48.4055 18.8417 48.0006 18.8552 47.4209C18.8688 46.8387 19.273 46.4578 19.973 46.3656C20.7063 46.2697 21.0514 45.9008 21.0662 45.1689C21.0773 44.5903 21.0724 44.0117 21.0687 43.432C21.0613 42.4689 20.6361 42.058 19.6329 42.0568C16.8808 42.0532 14.13 42.0568 11.3779 42.0556C10.9059 42.0556 10.4327 42.0724 9.96186 42.0472C9.31729 42.0125 8.87115 41.5537 8.87485 40.9692C8.87854 40.3834 9.32592 39.9438 9.97419 39.9007C10.1578 39.8887 10.3439 39.8959 10.5288 39.8959C13.568 39.8959 16.6072 39.8983 19.6464 39.8947C20.6386 39.8947 21.0638 39.4742 21.0699 38.5064C21.0736 37.947 21.0798 37.3887 21.0675 36.8293C21.0527 36.1178 20.694 35.7165 19.9878 35.5919C19.2286 35.4578 18.8441 35.0805 18.8577 34.4839C18.87 33.9101 19.2471 33.552 19.9743 33.425C20.6879 33.3004 21.0514 32.9015 21.0675 32.1984C21.0798 31.6198 21.0736 31.0413 21.0699 30.4615C21.0638 29.496 20.6817 29.1211 19.692 29.1199C17.3923 29.1175 15.0925 29.1199 12.7928 29.1199L12.7916 29.1211Z" fill="#3166DE"/>
<path d="M35.4896 54.995C32.3505 54.995 29.2115 54.995 26.0724 54.995C25.8876 54.995 25.7015 55.0057 25.519 54.9842C24.9176 54.9147 24.5097 54.4595 24.522 53.8881C24.5343 53.3431 24.9361 52.9131 25.5117 52.846C25.6941 52.8244 25.8802 52.8352 26.065 52.8352C32.3838 52.8352 38.7025 52.8352 45.0225 52.8352C45.2074 52.8352 45.3935 52.8244 45.5759 52.846C46.1724 52.9143 46.5951 53.3826 46.5804 53.9408C46.5668 54.4763 46.1539 54.9147 45.5833 54.9842C45.4009 55.0057 45.2148 54.995 45.0299 54.995C41.8502 54.995 38.6693 54.995 35.4896 54.995Z" fill="#3166DE"/>
<path d="M51.016 36.7192C51.016 37.0774 51.0381 37.4367 51.011 37.7937C50.9642 38.4118 50.4749 38.8382 49.8747 38.8191C49.2979 38.8011 48.8357 38.3818 48.8111 37.7853C48.7815 37.0702 48.7791 36.3515 48.8148 35.6363C48.8444 35.0518 49.3374 34.6397 49.9141 34.6421C50.4909 34.6445 50.9605 35.0578 51.0098 35.6447C51.0394 36.0005 51.0147 36.361 51.016 36.7192Z" fill="#3166DE"/>
<path d="M28.2896 21.5651C28.0641 21.5651 27.8361 21.5867 27.6143 21.5603C27.019 21.4909 26.6024 21.0153 26.6221 20.4559C26.6419 19.9193 27.0535 19.4749 27.629 19.4269C28.0357 19.3934 28.4499 19.3982 28.8578 19.421C29.5011 19.4569 29.9473 19.9157 29.9423 20.499C29.9386 21.0836 29.49 21.5232 28.843 21.5675C28.6594 21.5807 28.4745 21.5699 28.2896 21.5699C28.2896 21.5675 28.2896 21.5663 28.2896 21.5639V21.5651Z" fill="#3166DE"/>
<path d="M51.016 32.3327C51.0271 32.9136 50.544 33.4084 49.9462 33.4275C49.3238 33.4479 48.7988 32.9496 48.805 32.3423C48.8111 31.7577 49.3041 31.2809 49.9056 31.2774C50.5058 31.275 51.0049 31.7481 51.0172 32.3315L51.016 32.3327Z" fill="#3166DE"/>
<path d="M23.0899 20.4046C23.1047 19.808 23.5805 19.3624 24.1991 19.3672C24.8351 19.372 25.3145 19.8655 25.2837 20.4848C25.2541 21.0754 24.7574 21.5162 24.1474 21.4946C23.5361 21.4731 23.0752 20.9975 23.0899 20.4058V20.4046Z" fill="#3166DE"/>
<path d="M50.0041 54.9905C49.4323 55.0061 48.9442 54.5485 48.9368 53.9903C48.9307 53.4572 49.3719 52.9973 49.9179 52.9697C50.4909 52.9398 50.9913 53.3806 51.016 53.9376C51.0406 54.4958 50.5797 54.9749 50.0041 54.9893V54.9905Z" fill="#3166DE"/>
<path d="M16.5937 47.5445C16.5838 48.0835 16.1093 48.5327 15.5584 48.522C15.0063 48.5112 14.5478 48.0524 14.5515 47.517C14.5565 46.9863 15.0396 46.5251 15.5831 46.5323C16.1241 46.5407 16.6023 47.0198 16.5925 47.5445H16.5937Z" fill="#3166DE"/>
</g>
<defs>
<clipPath id="clip0_1115_1834">
<rect width="61" height="55" fill="white"/>
</clipPath>
</defs>
</svg>
