<svg width="57" height="56" viewBox="0 0 57 56" fill="none" xmlns="http://www.w3.org/2000/svg">
<g clip-path="url(#clip0_1122_5079)">
<path d="M19.3427 14.7502C19.3427 14.375 19.3427 14.0734 19.3427 13.7717C19.3427 12.102 19.3396 10.4323 19.3437 8.7616C19.3458 7.94669 19.6783 7.61336 20.4927 7.6062C21.1363 7.60007 21.7809 7.60518 22.5032 7.60518C22.5032 6.84241 22.5012 6.13282 22.5032 5.42322C22.5073 4.46413 22.8051 4.15841 23.7515 4.15739C26.514 4.15432 29.2765 4.15432 32.038 4.15739C32.9486 4.15739 33.2597 4.47743 33.2627 5.39766C33.2648 6.1093 33.2627 6.82094 33.2627 7.60518C33.9564 7.60518 34.598 7.60109 35.2395 7.60518C36.0918 7.61132 36.4151 7.93033 36.4171 8.78205C36.4212 11.236 36.4284 13.6899 36.4089 16.1429C36.4059 16.5815 36.5092 16.7502 36.9747 16.7257C37.7063 16.6868 38.4409 16.7042 39.1735 16.7195C39.4866 16.7257 39.5848 16.6112 39.5838 16.3024C39.5756 13.0141 39.5766 9.72477 39.5838 6.43649C39.5838 6.15224 39.5214 6.01728 39.2011 5.97638C38.6896 5.91196 38.4051 5.54489 38.4133 5.06944C38.4215 4.60319 38.7407 4.2535 39.2339 4.17068C39.284 4.1625 39.3352 4.15739 39.3863 4.15739C41.5176 4.15739 43.6488 4.14819 45.781 4.1625C46.3745 4.16659 46.7489 4.53878 46.7633 5.05819C46.7776 5.57454 46.4727 5.90276 45.8895 5.99785C45.824 6.00807 45.7585 6.02034 45.6409 6.04079C45.6306 6.22177 45.6102 6.40275 45.6102 6.5827C45.6081 9.75238 45.6184 12.9221 45.5979 16.0907C45.5948 16.5692 45.7023 16.7451 46.2108 16.7267C47.2667 16.6878 48.3246 16.7124 49.3815 16.7154C50.3065 16.7185 50.6052 17.014 50.6062 17.9465C50.6093 21.5763 50.6165 25.2061 50.597 28.8349C50.594 29.3297 50.7362 29.5015 51.2283 29.4565C51.6509 29.4177 52.0806 29.4361 52.5062 29.4535C53.0976 29.479 53.4414 29.7898 53.4547 30.3747C53.4803 31.482 53.469 32.5894 53.4619 33.6967C53.4588 34.1599 53.2061 34.4493 52.7774 34.6118C51.7266 35.0106 50.6717 35.4022 49.6353 35.8388C49.4235 35.9278 49.1994 36.1711 49.1329 36.3899C48.6275 38.0596 47.9737 39.6619 47.1316 41.1915C47.0293 41.3776 47.0221 41.6904 47.104 41.8898C47.5204 42.897 47.9829 43.8847 48.4239 44.8816C48.7093 45.5268 48.6571 45.7916 48.1548 46.2957C46.6978 47.7558 45.2398 49.2138 43.7798 50.6709C43.262 51.1872 43.0032 51.2353 42.3156 50.9347C41.3324 50.5032 40.3593 50.0471 39.3679 49.6392C39.1674 49.5564 38.8553 49.5584 38.6701 49.6596C37.1364 50.495 35.5403 51.1708 33.8592 51.6412C33.5482 51.7281 33.3763 51.8835 33.2648 52.1892C32.8995 53.1974 32.5056 54.1953 32.1178 55.1963C31.8774 55.818 31.6328 55.9908 30.9657 55.9918C28.902 55.9949 26.8394 55.9867 24.7757 55.9969C24.2058 56 23.8507 55.7628 23.6522 55.227C23.2675 54.1892 22.8726 53.1544 22.4449 52.134C22.362 51.9367 22.1339 51.726 21.9303 51.6657C20.2584 51.1647 18.6562 50.5093 17.1214 49.675C16.924 49.5676 16.5925 49.5615 16.3807 49.6474C15.3708 50.0584 14.3835 50.5216 13.3838 50.9571C12.7587 51.2291 12.4835 51.1729 12.0077 50.6985C10.5364 49.2292 9.0651 47.7588 7.59585 46.2875C7.10985 45.8008 7.05665 45.5442 7.32881 44.9164C7.76365 43.9164 8.22612 42.9287 8.6364 41.9195C8.72337 41.7068 8.7203 41.3765 8.61287 41.1782C7.78718 39.6414 7.12009 38.0443 6.62283 36.3715C6.55837 36.1568 6.32407 35.9227 6.11125 35.8327C5.10651 35.4094 4.08745 35.0198 3.06327 34.6456C2.52407 34.4482 2.27851 34.0986 2.28567 33.529C2.29898 32.5413 2.28363 31.5526 2.29079 30.5639C2.29693 29.7796 2.62741 29.4586 3.4224 29.4483C3.84906 29.4432 4.27571 29.4289 4.70134 29.4524C5.06252 29.4719 5.17097 29.3287 5.1679 28.979C5.15358 27.5138 5.16176 26.0486 5.16176 24.5824C5.16176 22.3667 5.15972 20.152 5.16279 17.9363C5.16381 17.0069 5.45848 16.7154 6.39057 16.7134C7.82299 16.7103 9.25541 16.7032 10.6878 16.7185C11.0439 16.7226 11.1585 16.6091 11.1523 16.2512C11.1329 15.1102 11.1411 13.9681 11.1472 12.8259C11.1523 11.828 11.7437 11.4528 12.6717 11.8556C14.7037 12.738 16.7337 13.6235 18.7646 14.5069C18.9314 14.5795 19.1012 14.646 19.3417 14.7451L19.3427 14.7502ZM51.6212 31.298C51.3583 31.298 51.1741 31.298 50.9889 31.298C49.181 31.298 47.3741 31.298 45.5662 31.298C43.5199 31.298 41.4736 31.3062 39.4272 31.2919C39.0159 31.2888 38.7581 31.3297 38.7489 31.845C38.7417 32.2642 38.621 32.6855 38.5146 33.0965C37.1998 38.1813 32.4872 41.6628 27.3131 41.3796C22.0715 41.0923 17.7507 37.1149 17.0181 31.8808C16.9567 31.4452 16.8309 31.2857 16.3633 31.2878C12.4753 31.3072 8.58729 31.299 4.6993 31.299H4.13963C4.13963 31.8051 4.15907 32.2448 4.13349 32.6824C4.11508 32.9974 4.25013 33.1333 4.52843 33.2366C5.50248 33.5986 6.46322 33.9984 7.44033 34.3511C7.90894 34.5198 8.16063 34.8255 8.27318 35.2938C8.74076 37.2478 9.51325 39.078 10.5528 40.7937C10.8065 41.2119 10.8393 41.6025 10.6305 42.0483C10.1988 42.9747 9.80689 43.9194 9.37103 44.8438C9.22574 45.1505 9.24006 45.3427 9.4979 45.5922C10.5876 46.6474 11.6578 47.7231 12.7198 48.8059C12.9449 49.0349 13.1229 49.083 13.4227 48.9408C14.3466 48.5042 15.2951 48.1177 16.218 47.6791C16.6825 47.4582 17.0866 47.4787 17.5205 47.7435C19.2342 48.7915 21.0729 49.5461 23.022 50.0267C23.4936 50.1433 23.7934 50.3989 23.9612 50.8631C24.3091 51.8232 24.702 52.768 25.0519 53.727C25.1604 54.0236 25.2944 54.1616 25.632 54.1575C27.132 54.1401 28.633 54.1422 30.1339 54.1575C30.4388 54.1606 30.5903 54.0593 30.6956 53.7741C31.0609 52.7833 31.4579 51.8048 31.8272 50.815C31.9848 50.3938 32.2641 50.1463 32.699 50.041C34.6675 49.5635 36.5225 48.8028 38.2516 47.7476C38.6906 47.4797 39.0896 47.4623 39.5521 47.6801C40.477 48.1157 41.4234 48.5042 42.3494 48.9378C42.6451 49.0758 42.8313 49.0359 43.0584 48.8038C44.1194 47.719 45.1917 46.6464 46.2752 45.5851C46.5075 45.3581 46.5494 45.175 46.4093 44.8765C45.9673 43.9358 45.5631 42.9788 45.1334 42.033C44.941 41.6107 44.9554 41.2201 45.1999 40.8203C46.2568 39.0923 47.015 37.2365 47.5061 35.2744C47.6248 34.799 47.8836 34.5096 48.3481 34.3429C49.3099 33.9973 50.2635 33.6262 51.2079 33.2366C51.3757 33.1671 51.5864 32.9697 51.6048 32.8113C51.6581 32.343 51.6233 31.8644 51.6233 31.299L51.6212 31.298ZM21.2181 29.4156C21.3563 29.4299 21.4555 29.4483 21.5548 29.4483C25.7477 29.4504 29.9395 29.4463 34.1324 29.4575C34.5141 29.4586 34.5765 29.3001 34.5765 28.9688C34.5693 22.6162 34.5714 16.2635 34.5693 9.91087C34.5693 9.76567 34.5407 9.6215 34.5263 9.47938H21.2192V29.4156H21.2181ZM18.7984 31.3369C19.2036 34.3552 20.6227 36.6854 23.1939 38.2058C26.3974 40.1005 29.6663 40.0432 32.8105 38.0576C35.2487 36.5188 36.589 34.2346 36.9614 31.3358H18.7984V31.3369ZM19.3038 29.4177C19.3212 29.3226 19.3386 29.2735 19.3386 29.2234C19.3407 25.1887 19.3468 21.154 19.3263 17.1193C19.3263 16.9506 19.1217 16.7073 18.9519 16.6285C17.8714 16.1265 16.7746 15.6592 15.6819 15.1838C14.8122 14.8044 13.9415 14.4292 13.0247 14.0325V29.4187H19.3028L19.3038 29.4177ZM48.7605 18.605C48.5773 18.5856 48.4781 18.5651 48.3778 18.5651C44.544 18.5631 40.7093 18.5692 36.8755 18.5549C36.457 18.5528 36.413 18.7369 36.4141 19.0794C36.4233 22.3493 36.4284 25.6181 36.4089 28.888C36.4059 29.341 36.5358 29.4616 36.9829 29.4596C40.7144 29.4422 44.4468 29.4412 48.1783 29.4606C48.6571 29.4627 48.7728 29.3185 48.7707 28.8574C48.7523 25.6222 48.7605 22.3861 48.7605 19.151C48.7605 18.9843 48.7605 18.8177 48.7605 18.604V18.605ZM11.1094 29.4463V18.5631C9.90102 18.5631 8.72849 18.5794 7.55697 18.5539C7.13646 18.5447 7.00038 18.6643 7.00447 19.0958C7.02493 21.1223 7.01368 23.1489 7.01368 25.1754C7.01368 26.4525 7.00549 27.7306 7.02595 29.0077C7.028 29.1559 7.19375 29.4258 7.28788 29.4279C8.54534 29.4565 9.80382 29.4473 11.1094 29.4473V29.4463ZM31.4159 7.60416C31.4159 7.18392 31.3914 6.84344 31.4221 6.50806C31.4599 6.09805 31.2993 5.98967 30.9003 5.99376C29.0934 6.01319 27.2855 5.98967 25.4786 6.00603C24.1761 6.01728 24.3838 5.75859 24.3439 7.1328C24.3326 7.53156 24.4841 7.61438 24.8503 7.61132C26.692 7.59496 28.5327 7.60416 30.3744 7.60416C30.6946 7.60416 31.0159 7.60416 31.4149 7.60416H31.4159ZM41.4633 8.95178H43.7552C43.7552 8.02542 43.7603 7.12769 43.745 6.22995C43.7439 6.15429 43.6058 6.01932 43.5281 6.01728C42.8507 5.99989 42.1734 6.00705 41.4623 6.00705V8.95178H41.4633ZM41.4296 15.1776C41.4296 15.5682 41.4377 15.9598 41.4265 16.3504C41.4193 16.605 41.5053 16.7236 41.7764 16.7185C42.3207 16.7073 42.865 16.7073 43.4094 16.7185C43.6754 16.7236 43.7685 16.6132 43.7654 16.3545C43.7562 15.6071 43.7562 14.8586 43.7654 14.1112C43.7685 13.8566 43.6836 13.7359 43.4135 13.7411C42.8691 13.7513 42.3248 13.7513 41.7805 13.7411C41.5145 13.7359 41.4173 13.8484 41.4265 14.1061C41.4388 14.4629 41.4296 14.8198 41.4296 15.1766V15.1776ZM42.6451 10.8321C42.3903 10.8321 42.1325 10.8536 41.8808 10.827C41.4562 10.783 41.4101 11.0141 41.4234 11.3526C41.4347 11.6583 41.405 11.9303 41.8583 11.9006C42.3494 11.8689 42.8446 11.8771 43.3367 11.8986C43.6795 11.9139 43.7532 11.7707 43.7757 11.4517C43.8104 10.965 43.657 10.7534 43.1556 10.826C42.9889 10.8505 42.8159 10.8301 42.6461 10.8301L42.6451 10.8321Z" fill="#3166DE"/>
<path d="M1.58086 9.48378C1.58086 8.56457 1.57165 7.64536 1.58597 6.72718C1.59109 6.41328 1.49082 6.29467 1.16443 6.2415C0.0543088 6.06155 -0.351884 4.9859 0.342839 4.09021C1.23912 2.93277 2.14564 1.78351 3.06034 0.640379C3.74381 -0.214411 4.64112 -0.208276 5.33277 0.655716C6.22598 1.77226 7.10897 2.89698 7.98786 4.02375C8.7542 5.00635 8.36642 6.04928 7.13966 6.24968C6.78872 6.30694 6.79383 6.48997 6.79486 6.73945C6.7969 8.47561 6.7969 10.2108 6.79486 11.9469C6.79486 12.9694 6.52474 13.2322 5.48522 13.2332C4.54903 13.2332 3.61182 13.2383 2.67563 13.2311C1.91543 13.226 1.59518 12.908 1.58495 12.1381C1.57369 11.2537 1.5829 10.3682 1.5829 9.48378H1.58086ZM4.94806 11.3621C4.94806 11.1371 4.94806 10.9531 4.94806 10.769C4.94806 9.13511 4.96546 7.50119 4.93988 5.86728C4.92862 5.16381 5.01661 4.56567 5.90574 4.37037C5.31128 3.61783 4.77106 2.93379 4.18581 2.19352C3.59545 2.94606 3.05727 3.63214 2.471 4.37957C3.3192 4.56464 3.44607 5.11473 3.43788 5.79059C3.41742 7.45825 3.43072 9.12591 3.43277 10.7946C3.43277 10.9756 3.44812 11.1576 3.45835 11.3621H4.94806Z" fill="#3166DE"/>
<path d="M50.1991 9.44257C50.1991 8.54075 50.1919 7.63893 50.2021 6.7371C50.2052 6.44365 50.1561 6.29335 49.8021 6.2412C48.6776 6.07658 48.254 5.00605 48.9467 4.10525C49.8594 2.91815 50.7874 1.74128 51.7287 0.576682C52.3446 -0.185063 53.2552 -0.195287 53.8681 0.560323C54.8227 1.73617 55.7609 2.92633 56.6807 4.12877C57.3478 5.00094 56.9191 6.06738 55.8274 6.23609C55.4478 6.29437 55.4069 6.47023 55.409 6.77698C55.4161 8.51314 55.4151 10.2483 55.411 11.9844C55.409 12.9497 55.1255 13.2288 54.1628 13.2298C53.2092 13.2308 52.2556 13.2349 51.302 13.2288C50.5377 13.2237 50.2072 12.9016 50.2011 12.146C50.1929 11.2442 50.1991 10.3424 50.1991 9.44053V9.44257ZM51.0933 4.37211C51.8535 4.56945 52.0612 5.01934 52.053 5.6635C52.0325 7.38228 52.0448 9.10107 52.0479 10.8209C52.0479 10.9998 52.0663 11.1787 52.0745 11.3444H53.5622C53.5622 9.54891 53.5693 7.79741 53.5581 6.04591C53.553 5.31177 53.4957 4.57047 54.5321 4.37416C53.9182 3.60117 53.378 2.91918 52.802 2.19322C52.2075 2.95087 51.6765 3.62775 51.0923 4.37211H51.0933Z" fill="#3166DE"/>
<path d="M22.9862 16.2063C22.9862 14.9466 22.9821 13.6869 22.9872 12.4272C22.9903 11.5499 23.2808 11.2524 24.1434 11.2503C26.647 11.2462 29.1517 11.2462 31.6554 11.2503C32.4729 11.2524 32.7962 11.5775 32.7982 12.4047C32.8033 14.9241 32.8033 17.4435 32.7982 19.9628C32.7962 20.8084 32.4565 21.155 31.6257 21.1561C29.1384 21.1612 26.6521 21.1612 24.1648 21.1561C23.3054 21.154 22.9923 20.8401 22.9882 19.9843C22.9821 18.7246 22.9872 17.4649 22.9862 16.2052V16.2063ZM24.8585 19.2665C24.9854 19.287 25.0519 19.3074 25.1174 19.3074C26.9222 19.3105 28.7271 19.3044 30.5319 19.3177C30.889 19.3197 30.9545 19.153 30.9535 18.8473C30.9453 17.0611 30.9504 15.2738 30.9473 13.4875C30.9473 13.375 30.9177 13.2615 30.8993 13.1347H24.8585V19.2665Z" fill="#3166DE"/>
<path d="M27.8799 22.8646C29.1394 22.8646 30.3989 22.8605 31.6585 22.8656C32.3562 22.8687 32.7768 23.2153 32.7819 23.7736C32.788 24.431 32.3961 24.8083 31.6646 24.8104C29.1456 24.8165 26.6266 24.8165 24.1076 24.8104C23.3566 24.8083 22.9964 24.4627 22.9974 23.7818C22.9974 23.2 23.3873 22.8687 24.1014 22.8656C25.3609 22.8595 26.6204 22.8636 27.8799 22.8636V22.8646Z" fill="#3166DE"/>
<path d="M42.6288 21.7971C43.9579 21.7971 45.2869 21.792 46.617 21.7992C47.4724 21.8033 47.7834 22.1213 47.7855 22.9781C47.7886 24.3063 47.7896 25.6345 47.7855 26.9637C47.7834 27.7572 47.4673 28.0884 46.6743 28.0905C43.9476 28.0976 41.2209 28.0976 38.4942 28.0905C37.7228 28.0884 37.4138 27.7684 37.4097 26.9954C37.4025 25.6325 37.4025 24.2705 37.4097 22.9076C37.4138 22.1192 37.734 21.8043 38.5403 21.8002C39.9041 21.7931 41.267 21.7982 42.6308 21.7982L42.6288 21.7971ZM39.2554 26.1999H45.8957V23.6468C43.7573 23.6468 41.6629 23.6427 39.5685 23.6591C39.4631 23.6591 39.2728 23.8421 39.2698 23.9443C39.2442 24.6887 39.2554 25.4331 39.2554 26.1999Z" fill="#3166DE"/>
</g>
<defs>
<clipPath id="clip0_1122_5079">
<rect width="57" height="56" fill="white"/>
</clipPath>
</defs>
</svg>
