<svg width="56" height="56" viewBox="0 0 56 56" fill="none" xmlns="http://www.w3.org/2000/svg">
<g clip-path="url(#clip0_1122_5112)">
<path d="M10.5607 28.7415H3.84128V29.2383C3.84128 33.4209 3.84644 37.6036 3.83201 41.7862C3.83098 42.1622 3.95774 42.3109 4.29577 42.4441C5.71386 43.0039 6.52493 44.4941 6.2374 45.9348C5.93337 47.455 4.65339 48.5074 3.12194 48.496C1.61007 48.4857 0.372331 47.4488 0.0621247 45.9338C-0.233654 44.4889 0.567112 43.0039 2.00066 42.4462C2.38919 42.2954 2.45618 42.0919 2.45618 41.7243C2.44587 37.301 2.44896 32.8777 2.44999 28.4534C2.44999 27.4774 2.6221 27.3029 3.57849 27.3029C5.69119 27.3029 7.80389 27.3029 9.91659 27.3029C10.1031 27.3029 10.2907 27.3029 10.5628 27.3029C10.5628 26.8154 10.5586 26.36 10.5628 25.9035C10.5731 24.8987 10.9936 24.3761 11.9654 24.1582C12.8198 23.9661 13.6803 23.7977 14.5264 23.5767C14.7181 23.5272 14.9057 23.332 15.0262 23.1564C15.6106 22.3065 15.4787 21.5288 14.8129 20.7573C14.4017 20.2802 14.1976 19.518 13.7019 19.2495C13.2062 18.98 12.4652 19.1555 11.8325 19.1535C10.132 19.1483 8.43152 19.1607 6.73105 19.1442C6.38374 19.1411 6.22709 19.2516 6.09621 19.58C5.49847 21.0702 4.06698 21.8314 2.52626 21.5174C1.08859 21.2252 0.0322377 19.9218 0.0342989 18.445C0.03636 16.9527 1.11641 15.6421 2.58088 15.355C4.06183 15.0648 5.53248 15.8662 6.09724 17.3245C6.23946 17.6911 6.42806 17.7685 6.77846 17.7665C8.92517 17.7541 11.0729 17.7541 13.2196 17.7665C13.5597 17.7685 13.7617 17.6436 13.9977 17.3967C15.0901 16.2535 16.2073 15.1319 17.343 14.0331C17.8902 13.5043 18.5632 13.4671 19.2413 13.8813C20.004 14.347 20.7532 14.8345 21.4932 15.3343C21.7652 15.5182 21.9858 15.4934 22.2981 15.419C23.2761 15.1867 23.677 14.5711 23.7656 13.6148C23.8192 13.0365 23.9944 12.4695 24.1263 11.8994C24.3201 11.0546 24.8663 10.6085 25.7371 10.5857C26.2153 10.5733 26.6945 10.5837 27.2098 10.5837V3.87181C27.0388 3.86355 26.8728 3.84909 26.7069 3.84909C22.5506 3.84806 18.3942 3.85425 14.2368 3.83773C13.8462 3.8367 13.6824 3.95443 13.5381 4.31899C12.9774 5.73903 11.481 6.54354 10.0454 6.24611C8.54591 5.93525 7.51223 4.67942 7.50605 3.16231C7.5009 1.62661 8.54694 0.364581 10.0784 0.0578533C11.5016 -0.227186 12.9733 0.56287 13.5278 1.97258C13.6865 2.37535 13.8895 2.46107 14.2801 2.46004C18.6941 2.44764 23.1081 2.45177 27.5231 2.45281C28.4857 2.45281 28.6537 2.62528 28.6537 3.60226C28.6537 5.71941 28.6537 7.83655 28.6537 9.95369C28.6537 10.1396 28.6537 10.3255 28.6537 10.5837C29.136 10.5837 29.5761 10.5816 30.0161 10.5837C31.0549 10.5909 31.5702 11.0009 31.7949 12.0068C31.9866 12.863 32.1566 13.7243 32.3731 14.5742C32.4184 14.7539 32.6235 14.8934 32.7564 15.0493C32.7668 15.0607 32.7884 15.0617 32.8028 15.071C33.6417 15.6142 34.4198 15.545 35.1515 14.8562C35.2989 14.7168 35.4803 14.5949 35.6679 14.5195C36.6397 14.1281 36.8644 13.4206 36.8149 12.4075C36.7242 10.5362 36.7809 8.65655 36.7953 6.78004C36.7984 6.42374 36.7046 6.24301 36.346 6.10049C34.8815 5.51905 34.1189 4.08249 34.4177 2.56848C34.7084 1.09577 36.0162 0.021707 37.5044 0.0330673C38.9771 0.0444275 40.2591 1.09784 40.5673 2.54885C40.8785 4.02053 40.086 5.52008 38.6442 6.09533C38.2752 6.24198 38.165 6.42374 38.1691 6.80793C38.1876 8.95915 38.1835 11.1104 38.1722 13.2626C38.1701 13.5828 38.2804 13.778 38.5143 14.0031C39.6542 15.0989 40.7754 16.2153 41.874 17.3523C42.4244 17.9214 42.4635 18.6009 42.0379 19.297C41.571 20.0592 41.0877 20.8131 40.5858 21.5525C40.3962 21.8314 40.4457 22.0545 40.5199 22.3602C40.7517 23.3072 41.3268 23.7306 42.278 23.8091C42.9067 23.8607 43.525 24.0394 44.1444 24.1799C44.9555 24.3647 45.4079 24.9173 45.4357 25.7579C45.4522 26.2526 45.4388 26.7473 45.4388 27.2719H52.1603V26.738C52.1603 22.5729 52.1552 18.4078 52.1686 14.2417C52.1696 13.8761 52.0624 13.7129 51.7151 13.5756C50.2888 13.0148 49.4798 11.54 49.7601 10.0921C50.0528 8.57703 51.3369 7.51433 52.8673 7.52053C54.3833 7.52672 55.619 8.55225 55.9364 10.0694C56.2383 11.5131 55.4448 12.9962 54.0143 13.5652C53.6413 13.7139 53.5454 13.8988 53.5465 14.2789C53.5599 18.7197 53.5557 23.1605 53.5547 27.6014C53.5547 28.5309 53.3702 28.7126 52.4375 28.7126C50.1373 28.7126 47.836 28.7126 45.443 28.7126C45.443 29.1391 45.443 29.543 45.443 29.9457C45.4399 31.1664 45.0431 31.6539 43.8486 31.9059C43.0427 32.0753 42.2296 32.2198 41.434 32.4285C41.2145 32.4863 40.998 32.7011 40.8599 32.8994C40.2777 33.7349 40.4549 34.4971 41.0836 35.2489C41.4886 35.7322 41.6958 36.4903 42.1904 36.7609C42.6851 37.0314 43.4261 36.8579 44.0599 36.86C45.7944 36.8662 47.5299 36.8538 49.2644 36.8693C49.6055 36.8724 49.7714 36.7764 49.9044 36.4417C50.4949 34.9494 51.9315 34.1821 53.4671 34.494C54.9089 34.7873 55.9663 36.0823 55.9694 37.5581C55.9725 39.0474 54.8955 40.3631 53.4321 40.6574C51.9563 40.9538 50.4784 40.1535 49.9095 38.6993C49.7704 38.343 49.5962 38.2439 49.2365 38.246C47.0383 38.2614 44.839 38.2439 42.6408 38.2676C42.411 38.2697 42.1348 38.4215 41.9637 38.5899C40.8208 39.7073 39.716 40.864 38.5659 41.9742C37.999 42.5216 37.3189 42.5443 36.6242 42.1126C35.8657 41.6406 35.133 41.1263 34.3621 40.676C34.1663 40.5624 33.8592 40.5759 33.618 40.6172C32.6369 40.7865 32.2205 41.4227 32.1371 42.3894C32.0855 42.9842 31.9062 43.5698 31.7681 44.1554C31.5826 44.9382 31.0302 45.3957 30.2253 45.4246C29.7296 45.4422 29.2329 45.4277 28.6959 45.4277V52.1644H29.2401C33.3799 52.1644 37.5188 52.1582 41.6586 52.1737C42.0441 52.1747 42.2162 52.0694 42.3615 51.6996C42.9469 50.2073 44.6711 49.3894 46.2108 49.8283C47.7772 50.2744 48.714 51.7699 48.4595 53.4161C48.2255 54.9332 46.7992 56.0992 45.209 55.9887C43.9053 55.8978 42.8634 55.307 42.3708 54.0295C42.211 53.6164 41.9915 53.5534 41.6102 53.5545C37.2137 53.5648 32.8162 53.5607 28.4187 53.5607C27.4108 53.5607 27.248 53.3995 27.248 52.3998C27.248 50.2827 27.248 48.1656 27.248 46.0484V45.4298C26.7389 45.4298 26.2813 45.435 25.8227 45.4298C24.8549 45.4174 24.3252 44.9878 24.1139 44.0469C23.9223 43.1908 23.7563 42.3284 23.5327 41.4805C23.4781 41.275 23.2699 41.0747 23.0823 40.9466C22.2517 40.3817 21.4901 40.5108 20.7347 41.1583C20.2554 41.5683 19.4835 41.7676 19.2218 42.2623C18.9486 42.7777 19.1177 43.5347 19.1146 44.1853C19.1074 45.8553 19.1218 47.5242 19.1053 49.1942C19.1012 49.5649 19.1816 49.7663 19.566 49.9181C21.0232 50.4954 21.7817 51.9413 21.4798 53.4574C21.1902 54.9074 19.9102 55.967 18.4334 55.9794C16.9514 55.9918 15.6302 54.9146 15.3303 53.4502C15.0273 51.9712 15.8239 50.483 17.2678 49.9099C17.6109 49.7735 17.7356 49.6176 17.7326 49.2427C17.714 47.0739 17.7171 44.9062 17.7305 42.7374C17.7326 42.41 17.6058 42.2231 17.376 42.0021C16.2382 40.9043 15.1159 39.7879 14.0183 38.6498C13.469 38.0797 13.436 37.4043 13.8658 36.7061C14.3347 35.945 14.849 35.2117 15.2983 34.4392C15.4127 34.242 15.4106 33.9353 15.3684 33.6946C15.1922 32.6928 14.5439 32.2663 13.5566 32.1909C12.997 32.1486 12.4477 31.9679 11.8953 31.8408C11.0224 31.6405 10.5813 31.0952 10.5628 30.1926C10.5535 29.7288 10.5607 29.2641 10.5607 28.7374V28.7415ZM18.4076 15.0111C18.3148 15.0731 18.2066 15.1247 18.1273 15.2042C17.141 16.1864 16.163 17.1778 15.1715 18.1548C14.9634 18.3603 14.9994 18.5193 15.1437 18.7331C15.5457 19.3332 15.8909 19.9745 16.332 20.5435C16.974 21.3718 17.1121 22.199 16.5597 23.1182C16.4464 23.3072 16.3763 23.5261 16.3073 23.7389C16.0754 24.4494 15.5817 24.8326 14.8593 24.9699C14.0503 25.1238 13.2485 25.3138 12.4395 25.4667C12.0983 25.5317 11.952 25.6722 11.9582 26.0481C11.9809 27.3556 11.9809 28.663 11.9582 29.9705C11.952 30.3485 12.1045 30.4869 12.4436 30.5488C13.0846 30.6666 13.7153 30.8566 14.3605 30.931C15.4766 31.0601 16.2093 31.5899 16.4825 32.7094C16.5309 32.9066 16.6309 33.0946 16.7246 33.2784C17.0452 33.9105 16.9648 34.5002 16.5783 35.0785C16.1011 35.7932 15.6508 36.5264 15.1715 37.239C15.0036 37.4879 14.9685 37.6625 15.2107 37.899C16.1826 38.847 17.14 39.8106 18.0891 40.7814C18.3025 40.9993 18.4694 40.9982 18.7075 40.8299C19.1135 40.5428 19.5433 40.2877 19.9576 40.0109C22.0167 38.6394 21.7209 38.908 23.6574 39.6474C24.3953 39.9293 24.7962 40.4178 24.9353 41.181C25.0827 41.9928 25.2744 42.7952 25.4331 43.6049C25.4929 43.9096 25.6341 44.0304 25.9556 44.0263C27.2778 44.0108 28.6001 44.0098 29.9213 44.0263C30.2645 44.0314 30.416 43.9075 30.4788 43.5801C30.6303 42.787 30.8231 42.001 30.9632 41.2058C31.1013 40.4209 31.496 39.886 32.271 39.6412C32.5648 39.5493 32.8513 39.4254 33.1254 39.2839C33.8272 38.9214 34.4662 39.0081 35.1052 39.4563C35.7802 39.9293 36.4913 40.3497 37.1725 40.8134C37.4281 40.9869 37.6023 40.9962 37.8311 40.7607C38.7668 39.8003 39.715 38.8522 40.6713 37.9134C40.896 37.6924 40.9269 37.5251 40.7435 37.2555C40.2406 36.5171 39.7706 35.756 39.2811 35.0072C38.9327 34.4754 38.873 33.9301 39.145 33.3445C39.311 32.9861 39.4697 32.6216 39.5985 32.2488C39.8345 31.561 40.3096 31.184 41.0125 31.0487C41.871 30.8835 42.7232 30.68 43.5838 30.5251C43.9187 30.4652 44.0455 30.3351 44.0414 29.9881C44.0249 28.663 44.0249 27.338 44.0414 26.014C44.0455 25.6619 43.9095 25.5369 43.5786 25.4811C42.9026 25.3675 42.2389 25.1641 41.5597 25.0846C40.424 24.9513 39.683 24.4091 39.4068 23.2721C39.3584 23.0748 39.2574 22.8869 39.1657 22.703C38.8565 22.0875 38.9369 21.5123 39.3099 20.9494C39.785 20.2337 40.2292 19.4953 40.7208 18.791C40.9372 18.4811 40.8857 18.2983 40.6332 18.0515C39.7098 17.152 38.7988 16.2401 37.9022 15.3137C37.6435 15.0462 37.4477 14.9832 37.1241 15.2176C36.582 15.6101 35.9719 15.9116 35.4514 16.3278C34.5806 17.025 33.7046 17.1355 32.7461 16.5509C32.6019 16.4631 32.4318 16.4105 32.269 16.3599C31.4919 16.1234 31.0993 15.5822 30.9622 14.7963C30.8262 14.0176 30.6365 13.2492 30.4892 12.4726C30.4253 12.14 30.3026 11.9717 29.9182 11.9789C28.597 12.0027 27.2737 11.9975 25.9525 11.981C25.6289 11.9769 25.4877 12.0998 25.43 12.4034C25.3084 13.0447 25.1219 13.6778 25.0456 14.3233C24.9106 15.4717 24.3891 16.2535 23.2194 16.5241C23.072 16.5581 22.9319 16.6387 22.7958 16.71C22.1022 17.0766 21.4571 17.0084 20.815 16.5592C20.14 16.0872 19.4361 15.6555 18.7436 15.2083C18.6426 15.1433 18.5385 15.0834 18.4107 15.0059L18.4076 15.0111ZM47.1032 52.8749C47.1105 51.9134 46.3406 51.1316 45.3822 51.1254C44.466 51.1203 43.5333 51.9836 43.5189 52.8501C43.5044 53.6959 44.4557 54.6089 45.3574 54.613C46.2973 54.6182 47.0971 53.8219 47.1032 52.8749ZM10.6308 4.89114C11.5851 4.89217 12.3653 4.12587 12.3797 3.17264C12.3941 2.21837 11.5707 1.39217 10.6174 1.40353C9.67749 1.41489 8.89425 2.21527 8.89837 3.16128C8.90249 4.11967 9.67337 4.8901 10.6308 4.89114ZM51.1215 10.6147C51.104 11.5958 51.8779 12.3993 52.8488 12.4065C53.7794 12.4127 54.5904 11.6144 54.6028 10.6787C54.6152 9.73991 53.8299 8.93333 52.8879 8.91784C51.9315 8.90235 51.14 9.66349 51.1225 10.6157L51.1215 10.6147ZM4.88115 45.3368C4.87187 44.3857 4.08759 43.608 3.13946 43.6111C2.20574 43.6132 1.40601 44.4136 1.39983 45.3523C1.39467 46.3107 2.21708 47.1194 3.17965 47.0998C4.13603 47.0812 4.88939 46.2994 4.88012 45.3368H4.88115ZM3.18377 16.7141C2.22017 16.711 1.44311 17.4814 1.43796 18.4419C1.43384 19.3869 2.23048 20.1914 3.1745 20.1934C4.12779 20.1955 4.90897 19.4127 4.91103 18.4512C4.91309 17.4804 4.15458 16.7172 3.18274 16.7141H3.18377ZM39.2203 3.20775C39.2296 2.23696 38.4741 1.4562 37.5126 1.44174C36.5676 1.42832 35.7606 2.21631 35.7482 3.16437C35.7359 4.12174 36.5067 4.90973 37.4693 4.92109C38.4391 4.93245 39.212 4.17647 39.2213 3.20775H39.2203ZM52.8488 39.3014C53.8093 39.2901 54.5781 38.5031 54.5636 37.5427C54.5503 36.5967 53.7381 35.8066 52.7962 35.8221C51.8388 35.8376 51.0782 36.6287 51.0916 37.5943C51.104 38.564 51.8748 39.3128 52.8477 39.3014H52.8488ZM18.4303 51.0955C17.4595 51.0841 16.6896 51.837 16.6793 52.8078C16.669 53.7775 17.4275 54.5624 18.3859 54.5748C19.33 54.5872 20.1379 53.7982 20.1503 52.8522C20.1637 51.8969 19.3897 51.1068 18.4292 51.0955H18.4303Z" fill="#3166DE"/>
<path d="M22.8996 36.1691C23.0078 36.5419 23.117 36.8662 23.1943 37.1987C23.2922 37.618 23.182 37.9733 22.7367 38.1003C22.3008 38.2243 21.9968 38.0136 21.8638 37.5922C21.5681 36.6586 21.2785 35.7229 21.0064 34.7821C20.8827 34.3525 21.06 34.024 21.4825 33.8867C22.4286 33.5789 23.3778 33.2815 24.3342 33.0089C24.7299 32.8963 25.0587 33.0481 25.1864 33.4643C25.3132 33.8764 25.137 34.1779 24.7474 34.3266C24.3692 34.4723 23.9765 34.5807 23.486 34.7397C23.7055 34.8885 23.8353 34.9886 23.9755 35.0692C28.8131 37.8618 35.1502 34.8089 35.9324 29.2713C36.0643 28.3356 35.9468 27.3576 35.886 26.4034C35.8499 25.8395 35.9798 25.476 36.4054 25.382C36.831 25.288 37.1289 25.5462 37.2577 26.1214C38.4295 31.3616 34.5153 36.8383 29.2047 37.4301C27.0868 37.6666 25.1081 37.302 23.251 36.2631C23.1912 36.23 23.1315 36.1949 23.0686 36.1701C23.0397 36.1588 23.0026 36.168 22.9006 36.168L22.8996 36.1691Z" fill="#3166DE"/>
<path d="M32.0389 21.0186C31.7874 20.8626 31.6699 20.7718 31.538 20.7119C28.5617 19.3559 25.6863 19.551 23.08 21.5329C20.4788 23.5096 19.4791 26.2175 19.9759 29.4624C19.9893 29.5471 20.015 29.6307 20.0264 29.7154C20.0892 30.1461 19.9542 30.4724 19.509 30.5891C19.0968 30.6976 18.769 30.459 18.6639 29.9777C18.3156 28.3811 18.3857 26.7979 18.8556 25.2353C20.5808 19.4963 27.0951 16.7895 32.4233 19.5955C32.5686 19.6719 32.7149 19.7483 32.952 19.8722C32.8932 19.3941 32.8345 19.0254 32.8056 18.6536C32.7665 18.162 33.0076 17.8233 33.4178 17.7995C33.8764 17.7726 34.1237 18.0474 34.1887 18.4687C34.334 19.4209 34.468 20.3742 34.5782 21.3315C34.638 21.8417 34.4185 22.1133 33.9073 22.1908C32.9746 22.3333 32.0378 22.4541 31.1021 22.5791C30.6672 22.6369 30.3528 22.4789 30.256 22.0276C30.1684 21.6217 30.4281 21.3036 30.9114 21.2076C31.2391 21.1425 31.571 21.0971 32.0389 21.0207V21.0186Z" fill="#3166DE"/>
<path d="M32.8572 28.0754C32.7995 30.8153 30.5734 32.9851 27.8805 32.9262C25.1443 32.8663 22.9821 30.6387 23.0408 27.9391C23.1006 25.195 25.3215 23.0294 28.0165 23.0882C30.7548 23.1481 32.9139 25.3727 32.8572 28.0744V28.0754ZM31.4618 28.0196C31.4669 26.0749 29.9118 24.5 27.9732 24.4886C26.0306 24.4773 24.4538 26.0285 24.4363 27.97C24.4187 29.9374 25.9893 31.5289 27.9495 31.5279C29.8881 31.5279 31.4566 29.9612 31.4618 28.0186V28.0196Z" fill="#3166DE"/>
</g>
<defs>
<clipPath id="clip0_1122_5112">
<rect width="56" height="56" fill="white"/>
</clipPath>
</defs>
</svg>
