<svg width="56" height="51" viewBox="0 0 56 51" fill="none" xmlns="http://www.w3.org/2000/svg">
<g clip-path="url(#clip0_1122_5100)">
<path d="M35.6643 42.8284C35.6643 44.0342 35.6594 45.1632 35.6701 46.2921C35.6711 46.4329 35.7401 46.5766 35.7965 46.7114C35.955 47.0884 36.1727 47.4477 36.2767 47.8394C36.5732 48.9527 37.138 49.5728 38.391 49.3454C38.8819 49.2568 39.2454 49.683 39.2571 50.1368C39.2687 50.5827 38.9256 50.939 38.424 50.9902C38.2636 51.0069 38.1003 51.001 37.9389 51.001C31.394 51.001 24.8481 51.001 18.3031 50.999C18.0621 50.999 17.8113 51 17.5809 50.9409C17.1891 50.8396 16.9811 50.5403 16.9928 50.1397C17.0044 49.7194 17.228 49.4251 17.6567 49.3523C17.8628 49.3169 18.0766 49.3228 18.2866 49.3228C23.6495 49.3218 29.0115 49.3218 34.3744 49.3218H35.1229C34.8293 48.6564 34.5853 48.0639 34.2976 47.493C34.2538 47.4064 34.0089 47.3975 33.8563 47.3965C31.6205 47.3906 29.3847 47.3945 27.149 47.3916C26.5511 47.3916 26.207 47.1406 26.1438 46.6819C26.068 46.1317 26.4316 45.7281 27.0411 45.7242C28.3213 45.7144 29.6005 45.7213 30.8807 45.7203C31.8995 45.7203 32.9172 45.7203 34.005 45.7203C34.005 44.8039 34.0166 43.9249 33.9846 43.0469C33.9816 42.9692 33.6978 42.8402 33.5442 42.8393C31.5515 42.8255 29.5587 42.8304 27.566 42.8294C27.3395 42.8294 27.1101 42.8402 26.8865 42.8117C26.4073 42.7507 26.1176 42.4022 26.137 41.9435C26.1555 41.5016 26.4481 41.2063 26.9205 41.1669C27.0974 41.1522 27.2763 41.1581 27.4552 41.1581C35.7012 41.1581 43.9483 41.1581 52.1944 41.1581C53.3443 41.1581 54.0918 40.6315 54.3028 39.6649C54.3475 39.4592 54.3494 39.2417 54.3494 39.03C54.3514 27.3337 54.3514 15.6374 54.3504 3.94011C54.3504 2.52569 53.632 1.80322 52.2119 1.80322C43.9658 1.80027 35.7187 1.80223 27.4727 1.80027C27.2462 1.80027 27.0158 1.80617 26.7951 1.7668C26.3703 1.69199 26.1468 1.41147 26.14 0.978384C26.1322 0.543328 26.3587 0.265758 26.7718 0.165361C26.9419 0.124021 27.1256 0.125005 27.3026 0.125005C35.5972 0.123036 43.8929 0.121068 52.1876 0.125005C54.1929 0.125005 55.5888 1.22249 55.9427 3.06508C55.9952 3.33576 55.9971 3.61923 55.9981 3.8968C56.001 15.6099 56.001 27.3229 56 39.036C56 41.3225 54.5254 42.8245 52.2537 42.8274C46.9559 42.8353 41.6581 42.8304 36.3603 42.8304C36.1513 42.8304 35.9433 42.8304 35.6643 42.8304V42.8284Z" fill="#3166DE"/>
<path d="M1.69505 24.8878C2.40077 24.8878 3.0783 24.8848 3.75584 24.8878C4.48197 24.8917 4.73763 25.0787 4.86691 25.7805C5.33642 28.3318 6.28905 30.6764 7.74716 32.8123C8.13599 33.3812 8.08836 33.7139 7.6101 34.2041C7.12212 34.7041 6.62928 35.2002 6.15394 35.6815C7.24265 36.7672 8.30999 37.8312 9.4337 38.9523C9.84003 38.5428 10.3047 38.0743 10.7693 37.6048C11.4041 36.964 11.6257 36.9365 12.3596 37.4414C14.3825 38.8322 16.5891 39.7692 18.993 40.2328C19.9262 40.413 20.0507 40.5862 20.0516 41.5518C20.0516 42.0607 20.0691 42.5696 20.0458 43.0765C20.0302 43.416 20.1372 43.5391 20.4823 43.5322C21.3892 43.5135 22.2961 43.5155 23.2031 43.5322C23.7649 43.543 24.1227 43.92 24.0925 44.4171C24.0663 44.8482 23.7669 45.174 23.2954 45.1819C22.1299 45.1996 20.9625 45.2134 19.7989 45.1671C18.9775 45.1336 18.4487 44.5057 18.4059 43.6218C18.3845 43.1798 18.3729 42.7339 18.4069 42.294C18.436 41.914 18.2776 41.7861 17.9364 41.7083C15.8328 41.228 13.8702 40.3933 12.0486 39.2279C11.7987 39.0675 11.6354 39.0566 11.4294 39.2909C11.128 39.6334 10.8004 39.9523 10.4709 40.2683C9.79239 40.9169 8.91461 40.9386 8.24972 40.2821C7.1017 39.1491 5.96924 37.9995 4.84942 36.837C4.21368 36.1776 4.22632 35.3035 4.85914 34.6362C5.26157 34.2119 5.69609 33.8202 6.12186 33.4078C5.84676 32.9314 5.60374 32.5268 5.37628 32.1134C4.48975 30.4992 3.83069 28.7934 3.437 26.9902C3.36118 26.6418 3.22217 26.5325 2.88583 26.5532C2.45035 26.5798 2.01097 26.568 1.57451 26.5571C0.644241 26.5345 0.0153109 25.9114 0.00850645 24.9754C-0.00413046 23.4005 -0.00315839 21.8266 0.00850645 20.2518C0.0153109 19.3137 0.638408 18.6897 1.56868 18.6631C2.02166 18.6503 2.47562 18.6474 2.92861 18.6631C3.21342 18.673 3.35534 18.5952 3.42533 18.2802C3.90942 16.102 4.7386 14.0645 5.92744 12.1826C6.08297 11.9365 6.04701 11.78 5.84773 11.592C5.51626 11.28 5.19742 10.9522 4.88441 10.6195C4.23021 9.92361 4.20396 9.06039 4.85719 8.38123C5.97605 7.21878 7.10948 6.06913 8.25847 4.9372C8.93211 4.2728 9.77976 4.29938 10.4709 4.96181C10.8121 5.28859 11.1251 5.64589 11.477 5.95889C11.5781 6.04945 11.8221 6.11441 11.9144 6.05437C13.8926 4.7866 16.0379 3.9411 18.3068 3.39383C18.3213 3.3899 18.334 3.37808 18.3991 3.33773C18.3991 2.83279 18.3923 2.29438 18.4001 1.75597C18.4166 0.651601 18.993 0.0374045 20.0769 0.0137815C21.0966 -0.00787284 22.1182 -0.000982815 23.1379 0.0137815C23.726 0.0216559 24.0867 0.350409 24.0954 0.836648C24.1052 1.35143 23.7445 1.67625 23.1224 1.68412C22.2475 1.69495 21.3727 1.69889 20.4988 1.68314C20.1673 1.67723 20.0322 1.77861 20.0468 2.13C20.0691 2.70286 20.0555 3.27769 20.0516 3.85153C20.0458 4.57793 19.8562 4.82991 19.1515 4.95689C16.9906 5.34863 14.9803 6.1341 13.1081 7.28867C12.8321 7.45895 12.5657 7.64695 12.2935 7.82511C11.6481 8.24835 11.3613 8.22177 10.8082 7.65679C10.3416 7.1804 9.88863 6.6912 9.46092 6.2404C8.34498 7.3743 7.27765 8.45899 6.15005 9.60372C6.59525 10.0348 7.10365 10.5132 7.59551 11.0083C8.10488 11.5201 8.13793 11.8312 7.72674 12.4355C6.29294 14.5468 5.3442 16.8569 4.87955 19.3757C4.73763 20.1464 4.49267 20.3305 3.72084 20.3335C3.05789 20.3364 2.39591 20.3335 1.6931 20.3335V24.8868L1.69505 24.8878Z" fill="#3166DE"/>
<path d="M51.0249 34.6933V5.14488C50.6108 5.14488 50.2269 5.14784 49.8439 5.1439C49.6339 5.14193 49.42 5.1498 49.214 5.11634C48.7678 5.04547 48.48 4.69014 48.4966 4.2669C48.5131 3.84267 48.8232 3.49521 49.2781 3.48242C50.152 3.45781 51.0269 3.45683 51.9008 3.48045C52.3887 3.49423 52.6629 3.80428 52.7027 4.29643C52.7144 4.44308 52.7076 4.59171 52.7076 4.73936C52.7076 14.8579 52.7076 24.9773 52.7076 35.0958C52.7076 36.1431 52.4859 36.3695 51.4546 36.3695C43.4214 36.3695 35.3872 36.3695 27.354 36.3695C26.5064 36.3695 26.1312 36.1057 26.136 35.5201C26.1409 34.9403 26.5074 34.6943 27.3715 34.6943C35.0159 34.6943 42.6612 34.6943 50.3056 34.6943C50.5292 34.6943 50.7518 34.6943 51.024 34.6943L51.0249 34.6933Z" fill="#3166DE"/>
<path d="M41.107 9.51119C41.141 9.38717 41.1731 9.29563 41.1915 9.20114C41.3578 8.33694 41.8632 7.88318 42.7274 7.85857C43.3262 7.84184 43.926 7.84184 44.5248 7.85857C45.4842 7.88416 46.0645 8.46883 46.0879 9.43245C46.1024 10.0555 46.1044 10.6786 46.0879 11.3016C46.0616 12.2396 45.4745 12.8223 44.5462 12.841C43.9474 12.8538 43.3476 12.8519 42.7488 12.841C41.8798 12.8263 41.3694 12.4011 41.2042 11.5221C41.1527 11.2504 41.0399 11.1825 40.7872 11.1835C38.7798 11.1914 36.7715 11.1796 34.7642 11.2002C34.5698 11.2022 34.3375 11.34 34.1907 11.4847C33.1136 12.5507 32.0482 13.6275 30.9935 14.7151C30.701 15.0173 30.3831 15.1522 29.9622 15.1512C25.9952 15.1413 22.0281 15.1453 18.0611 15.1443C17.9474 15.1443 17.8337 15.1492 17.7219 15.1344C17.3029 15.0823 17.0045 14.7594 16.987 14.35C16.9695 13.9494 17.2475 13.5812 17.6548 13.5015C17.8434 13.4651 18.0417 13.4739 18.2351 13.4739C21.9591 13.473 25.6831 13.469 29.4081 13.4798C29.7425 13.4798 29.9816 13.3844 30.2159 13.1422C31.2123 12.1107 32.2427 11.1126 33.2254 10.0693C33.6172 9.65293 34.0361 9.49249 34.597 9.49938C36.5888 9.52399 38.5806 9.50922 40.5714 9.50922C40.7483 9.50922 40.9242 9.50922 41.1079 9.50922L41.107 9.51119ZM44.4353 11.1451C44.4353 10.6638 44.4509 10.2386 44.4237 9.81632C44.4178 9.71691 44.274 9.55056 44.1855 9.54564C43.7549 9.5171 43.3213 9.53285 42.8732 9.53285V11.1451H44.4353Z" fill="#3166DE"/>
<path d="M40.6909 20.1376C39.6566 20.1376 38.6067 20.1287 37.5569 20.1484C37.4228 20.1514 37.2702 20.2823 37.1613 20.3906C36.4449 21.1032 35.7586 21.8483 35.0149 22.5314C34.7758 22.7509 34.3967 22.9281 34.0808 22.929C29.026 22.9536 23.9713 22.9468 18.9165 22.9448C18.7872 22.9448 18.656 22.9408 18.5296 22.9153C18.1038 22.8286 17.8822 22.5402 17.8754 22.118C17.8686 21.7154 18.0786 21.4231 18.4713 21.3237C18.6871 21.2685 18.9204 21.2695 19.1459 21.2695C23.909 21.2666 28.6722 21.2636 33.4353 21.2744C33.8057 21.2744 34.073 21.1691 34.3277 20.8984C34.9877 20.1986 35.6536 19.5017 36.3613 18.8521C36.5887 18.6434 36.9494 18.4919 37.2546 18.48C38.4026 18.4367 39.5526 18.4623 40.7307 18.4623C40.9767 17.3255 41.7543 17.0253 42.774 17.0932C43.1609 17.1188 43.5536 17.0833 43.9395 17.1178C44.7065 17.1867 45.2547 17.7664 45.2868 18.545C45.3092 19.1021 45.3082 19.6612 45.2888 20.2183C45.2596 21.0599 44.6695 21.6514 43.8287 21.6938C43.4574 21.7125 43.0841 21.7016 42.7108 21.7016C41.4053 21.7016 41.0564 21.4378 40.6918 20.1376H40.6909ZM43.6139 18.7232C43.1891 18.7862 42.7332 18.736 42.461 18.9377C42.3006 19.0568 42.3035 19.7665 42.461 19.8768C42.741 20.0736 43.1949 20.0165 43.6129 20.0707V18.7232H43.6139Z" fill="#3166DE"/>
<path d="M29.0251 25.8583C31.4708 25.8583 33.9165 25.8652 36.3623 25.8514C36.8007 25.8494 37.137 25.9853 37.4393 26.3032C38.1023 26.9991 38.773 27.69 39.4709 28.3505C39.6498 28.5198 39.9356 28.6478 40.1786 28.6586C41.0029 28.696 41.8302 28.6665 42.6564 28.6773C42.9257 28.6812 43.087 28.6419 43.1736 28.322C43.3689 27.6044 43.8735 27.2373 44.6006 27.2196C45.1187 27.2068 45.6378 27.2068 46.1549 27.2196C46.987 27.2412 47.5761 27.7786 47.6295 28.6133C47.6684 29.2167 47.6694 29.8279 47.6266 30.4313C47.5712 31.2109 47.0405 31.7325 46.2696 31.7808C45.6893 31.8172 45.1041 31.8103 44.5218 31.7867C43.8287 31.7591 43.3612 31.3821 43.1774 30.7108C43.0938 30.4077 42.9539 30.3329 42.67 30.3368C41.6824 30.3496 40.6938 30.327 39.7062 30.3476C39.2658 30.3565 38.9353 30.2088 38.633 29.8889C37.9827 29.2029 37.3246 28.5228 36.6325 27.88C36.4313 27.693 36.1076 27.5463 35.8393 27.5454C31.1743 27.5257 26.5103 27.5316 21.8454 27.5286C21.6198 27.5286 21.3865 27.5306 21.1717 27.4725C20.7596 27.3593 20.5554 27.0493 20.5875 26.6231C20.6176 26.2195 20.8548 25.9597 21.2514 25.8819C21.4245 25.8484 21.6062 25.8573 21.7841 25.8573C24.1978 25.8563 26.6105 25.8573 29.0241 25.8573L29.0251 25.8583ZM44.689 28.9184C44.7541 29.3574 44.6939 29.8387 44.9019 30.0602C45.0662 30.2334 45.7252 30.2236 45.872 30.0464C46.0694 29.8073 45.9848 29.3309 46.0246 28.9194H44.689V28.9184Z" fill="#3166DE"/>
<path d="M7.32458 23.2283C7.33236 14.41 13.8627 7.6312 21.9941 7.44222C22.1555 7.43828 22.3197 7.4304 22.4782 7.456C22.8952 7.52194 23.1907 7.86251 23.1781 8.27C23.1645 8.69915 22.9399 8.98066 22.5248 9.0722C22.3217 9.11649 22.1069 9.11256 21.8969 9.11945C14.096 9.38324 8.13238 16.415 9.07723 24.2627C9.31733 26.2569 9.98028 28.1143 11.0564 29.8122C11.1176 29.9086 11.1837 30.0021 11.242 30.1006C11.5521 30.6173 11.4763 31.1292 11.0515 31.391C10.6393 31.6459 10.1834 31.5111 9.85488 31.0101C8.1975 28.4853 7.37124 25.6998 7.32458 23.2302V23.2283Z" fill="#3166DE"/>
<path d="M36.3788 3.4647C39.3426 3.4647 42.3065 3.4647 45.2703 3.4647C45.4161 3.4647 45.5619 3.46076 45.7078 3.46765C46.2784 3.49521 46.603 3.78853 46.6128 4.27969C46.6234 4.78857 46.2881 5.1065 45.698 5.14193C45.5687 5.14981 45.4385 5.14488 45.3092 5.14488C39.3485 5.14488 33.3887 5.14488 27.428 5.14291C27.2025 5.14291 26.9711 5.14292 26.7534 5.09272C26.3334 4.99724 26.1235 4.70097 26.138 4.27083C26.1526 3.83971 26.382 3.5651 26.8078 3.49423C26.9983 3.46273 27.1947 3.46667 27.3891 3.46667C30.385 3.4647 33.3819 3.46568 36.3778 3.46568L36.3788 3.4647Z" fill="#3166DE"/>
<path d="M25.1757 17.4396C26.9089 17.4396 28.6411 17.4396 30.3743 17.4396C30.5522 17.4396 30.733 17.4367 30.907 17.4643C31.3133 17.5282 31.5408 17.7979 31.5797 18.1936C31.6195 18.5952 31.4271 18.8984 31.0489 19.0362C30.872 19.1001 30.6689 19.111 30.4764 19.111C26.9138 19.1149 23.3511 19.1139 19.7885 19.1129C19.6436 19.1129 19.4949 19.11 19.3549 19.0785C18.9457 18.986 18.6745 18.6257 18.6968 18.2251C18.7192 17.8196 19.0186 17.4839 19.4434 17.4593C19.9596 17.4288 20.4796 17.4406 20.9977 17.4406C22.3907 17.4387 23.7827 17.4406 25.1757 17.4406V17.4396Z" fill="#3166DE"/>
<path d="M21.6801 37.777C18.2672 37.5831 15.2363 36.3823 12.6088 34.145C12.1091 33.7188 12.0245 33.2345 12.3735 32.8271C12.703 32.4432 13.1745 32.4422 13.6605 32.8566C15.7602 34.649 18.17 35.712 20.8976 36.028C21.3467 36.0801 21.8016 36.0772 22.2527 36.1047C22.8281 36.1402 23.1878 36.4748 23.181 36.963C23.1742 37.4542 22.8048 37.7702 22.2274 37.7761C22.0495 37.778 21.8716 37.7761 21.6801 37.7761V37.777Z" fill="#3166DE"/>
<path d="M29.1164 38.6708C29.1222 39.2879 28.6673 39.7653 28.0607 39.7781C27.4415 39.7909 26.9399 39.2919 26.9467 38.6708C26.9535 38.0714 27.4415 37.5841 28.0354 37.5822C28.6352 37.5812 29.1096 38.0586 29.1154 38.6698L29.1164 38.6708Z" fill="#3166DE"/>
</g>
<defs>
<clipPath id="clip0_1122_5100">
<rect width="56" height="51" fill="white"/>
</clipPath>
</defs>
</svg>
