<svg width="57" height="54" viewBox="0 0 57 54" fill="none" xmlns="http://www.w3.org/2000/svg">
<g clip-path="url(#clip0_1120_5076)">
<path d="M42.8313 46.6945C42.9775 47.4311 43.1119 48.0773 43.2324 48.7264C43.587 50.6427 42.8372 52.3947 41.2635 53.347C40.4672 53.829 39.5978 54.001 38.6702 53.999C32.7762 53.9913 26.8823 53.9952 20.9884 53.9952C15.5222 53.9952 10.0561 53.999 4.59089 53.9932C2.39376 53.9913 0.703425 52.7669 0.144263 50.8244C-0.121488 49.9003 0.030652 48.9985 0.214405 48.089C1.0245 44.0893 1.82867 40.0887 2.6358 36.0891C3.00725 34.2496 4.14139 33.1127 5.9641 32.6326C8.18889 32.0467 10.4137 31.4607 12.6474 30.9117C13.4782 30.7076 14.1727 30.3452 14.7279 29.7C15.0569 29.3171 15.456 28.9925 15.7751 28.6039C15.9342 28.4095 16.0172 28.1355 16.0764 27.8838C16.194 27.3853 15.9362 27.0938 15.539 26.7702C13.3676 25.0007 11.8689 22.8162 11.4816 20.005C11.4431 19.7281 11.3443 19.5959 11.0726 19.489C8.71348 18.5639 7.93302 15.9801 9.36057 13.9113C9.47912 13.7403 9.53938 13.4964 9.54037 13.2865C9.5542 11.5704 9.54333 9.85336 9.55025 8.13728C9.55815 5.89453 10.8405 4.30284 13.0554 3.73729C13.2135 3.69745 13.4041 3.51088 13.4486 3.3554C14.0394 1.28076 15.6763 0.023338 17.8646 0.0107055C19.7742 1.64399e-05 21.6839 -0.00678567 23.5935 0.0116772C29.2069 0.0670658 33.6278 4.42625 33.6802 9.94859C33.6911 11.0661 33.6713 12.1836 33.692 13.3001C33.696 13.5246 33.778 13.7782 33.9044 13.9647C35.2895 16.017 34.4794 18.5698 32.1469 19.5114C31.9889 19.5745 31.8061 19.7718 31.7804 19.9292C31.3734 22.4616 30.2175 24.5799 28.2407 26.2591C27.9453 26.5107 27.6568 26.7702 27.3595 27.0199C27.1155 27.225 27.0236 28.1403 27.2715 28.4134C27.7942 28.9887 28.3504 29.5357 28.7712 29.9682C29.7443 29.6145 30.5949 29.2967 31.4514 28.9964C32.0244 28.7953 32.3228 28.1015 32.0551 27.5583C31.8041 27.0491 31.5562 26.5399 31.3131 26.0268C30.9209 25.1999 31.0316 24.4419 31.6708 23.7909C32.3336 23.1155 33.0084 22.4499 33.696 21.7979C34.3816 21.1468 35.1512 21.038 36.0097 21.4432C36.395 21.6249 36.7941 21.7901 37.1507 22.0175C37.5973 22.3022 37.9994 22.3168 38.4834 22.0884C38.7818 21.9475 38.9497 21.7949 39.0347 21.4859C39.173 20.9874 39.3449 20.4967 39.5198 20.0089C39.8142 19.1868 40.4148 18.734 41.298 18.7097C42.3018 18.6825 43.3065 18.6815 44.3102 18.7097C45.2112 18.735 45.8247 19.1956 46.1211 20.0381C46.3038 20.5579 46.4619 21.0856 46.6407 21.6064C46.8146 22.1127 47.5575 22.4159 48.0435 22.1798C48.5602 21.929 49.0651 21.656 49.5867 21.415C50.3869 21.0448 51.1377 21.1526 51.7769 21.7493C52.505 22.4285 53.2173 23.1262 53.9068 23.8443C54.4966 24.4585 54.6004 25.1853 54.2467 25.9578C53.9908 26.5176 53.7122 27.0676 53.4455 27.6214C53.2242 28.0801 53.5255 28.8079 54.0096 28.9683C54.5549 29.149 55.1082 29.3103 55.6515 29.4988C56.514 29.7971 56.9832 30.4395 56.9921 31.3354C57.002 32.2741 57.002 33.2137 56.9921 34.1534C56.9822 35.0377 56.5317 35.6644 55.693 35.9676C55.2297 36.1348 54.7575 36.2795 54.2882 36.4302C53.3991 36.7168 53.1521 37.3028 53.5759 38.1278C53.7913 38.5466 54.0224 38.9576 54.225 39.3823C54.6093 40.1869 54.4986 40.9361 53.8762 41.5784C53.2064 42.2693 52.5178 42.9446 51.8164 43.6054C51.1298 44.2506 50.3632 44.3469 49.4978 43.9339C49.0977 43.7434 48.7035 43.5432 48.3083 43.3421C47.4528 42.9058 46.8412 43.1516 46.5459 44.0573C46.4155 44.4576 46.292 44.8609 46.1546 45.2583C45.8257 46.2145 45.1934 46.6693 44.162 46.6916C43.753 46.7004 43.344 46.6926 42.8303 46.6926L42.8313 46.6945ZM21.596 37.2056C21.3984 37.2056 21.2008 37.2056 21.0032 37.2056C17.1839 37.2056 13.3636 37.2124 9.54432 37.1978C9.08197 37.1959 8.92292 37.3242 9.00689 37.7818C9.09975 38.291 9.1452 38.809 9.20744 39.323C9.70238 43.3897 10.1944 47.4564 10.6923 51.5221C10.7812 52.2509 10.7901 52.2499 11.5508 52.2499C18.2518 52.2499 24.9519 52.2519 31.653 52.248C32.5411 52.248 32.4285 52.3656 32.5372 51.4891C33.0973 46.9579 33.6436 42.4248 34.1949 37.8926C34.2502 37.4353 34.0348 37.2066 33.5488 37.2066C29.5645 37.2066 25.5802 37.2066 21.596 37.2066V37.2056ZM21.7659 27.0238C22.7222 26.9587 23.7872 26.8227 24.8047 26.3125C25.8727 25.7781 26.8813 25.1921 27.7062 24.3331C29.115 22.8677 29.9034 21.1313 30.0506 19.113C30.1148 18.2355 30.2481 18.115 31.1195 17.9469C31.3734 17.8983 31.6342 17.8147 31.8575 17.6894C32.6814 17.2249 33.0163 16.2328 32.6666 15.3718C32.3169 14.5109 31.3931 14.0299 30.4615 14.2232C29.4252 14.438 29.0498 14.1426 29.0439 13.1057C29.0419 12.685 29.0567 12.2632 29.03 11.8435C28.9816 11.0991 28.5914 10.5413 27.9088 10.2547C27.5452 10.1021 27.1105 10.0613 26.7084 10.0603C23.4078 10.0545 20.1319 9.82615 16.9142 9.05168C16.1189 8.86025 15.7761 9.00018 15.3829 9.71148C15.2663 9.92332 15.1567 10.1478 15.0974 10.38C14.8396 11.3994 14.5896 12.4216 14.3594 13.4468C14.1747 14.2689 13.8023 14.4963 12.9892 14.2893C12.6938 14.2135 12.3668 14.1659 12.0685 14.2067C11.1102 14.3379 10.4473 15.1162 10.4404 16.054C10.4334 17.0383 11.0904 17.7992 12.1267 17.9508C12.5594 18.0139 12.9536 18.1033 13.0989 18.5562C13.1769 18.7991 13.1848 19.0663 13.2026 19.3238C13.498 23.6208 17.5702 27.017 21.7659 27.0229V27.0238ZM16.279 30.6698C16.1673 30.7698 16.0755 30.8359 16.0053 30.9185C15.2337 31.8213 14.2448 32.3314 13.085 32.6122C10.9136 33.1379 8.75892 33.7317 6.59044 34.272C5.36838 34.5761 4.59978 35.268 4.35379 36.5108C3.53085 40.6727 2.68519 44.8298 1.86719 48.9917C1.49771 50.8701 2.62394 52.2179 4.56619 52.246C5.89889 52.2645 7.23259 52.2509 8.56628 52.248C8.69174 52.248 8.8182 52.2198 8.95157 52.2043C8.95749 52.11 8.97034 52.0459 8.96342 51.9846C8.39537 47.3407 7.83621 42.6949 7.25136 38.053C7.035 36.3388 7.78483 35.4497 9.53049 35.4497C17.5969 35.4487 25.6632 35.4487 33.7296 35.4497C35.4031 35.4497 36.1836 36.3087 35.986 37.9363C35.4308 42.5171 34.8716 47.0968 34.3154 51.6766C34.2947 51.8457 34.2897 52.0167 34.2769 52.2072C34.4261 52.2256 34.5209 52.248 34.6157 52.248C36.0482 52.248 37.4807 52.2762 38.9122 52.2383C40.7191 52.1897 41.8276 50.7846 41.4778 49.0364C40.6628 44.9561 39.8329 40.8787 39.0298 36.7955C38.7601 35.4244 37.9747 34.6004 36.5965 34.2593C34.3322 33.6977 32.0798 33.0864 29.8174 32.517C28.8779 32.2809 28.0846 31.8339 27.4336 31.1313C27.2854 30.972 27.1184 30.8281 26.9386 30.6562C26.0455 32.9261 24.4649 34.3157 22.0385 34.4712C19.2101 34.6529 17.3449 33.2264 16.28 30.6698H16.279ZM41.1795 38.3406C41.2052 38.5349 41.215 38.6788 41.2427 38.8187C41.5579 40.39 41.8779 41.9603 42.1911 43.5325C42.4766 44.9668 42.4737 44.9552 43.9575 44.9415C44.3082 44.9386 44.4525 44.8055 44.5414 44.4965C44.6876 43.9825 44.8634 43.4772 45.0383 42.9719C45.2329 42.4044 45.6034 41.9943 46.1813 41.7766C46.4421 41.6785 46.698 41.5648 46.9549 41.4579C47.5041 41.2305 48.0455 41.249 48.577 41.5104C49.1065 41.7708 49.6252 42.0565 50.1686 42.2858C50.3158 42.348 50.5884 42.3062 50.7119 42.2052C51.0774 41.9059 51.3965 41.5522 51.7334 41.2208C52.6996 40.2695 52.752 40.2384 52.0614 39.0985C51.439 38.0714 51.4193 37.1114 51.9745 36.0735C52.2738 35.5129 52.6552 35.096 53.2825 34.9084C53.8179 34.7491 54.3544 34.5868 54.8711 34.3798C55.0202 34.3196 55.1931 34.1019 55.199 33.9513C55.2316 33.1428 55.2316 32.3324 55.199 31.5239C55.1931 31.3743 55.0133 31.1614 54.8622 31.1022C54.3455 30.8962 53.8031 30.7494 53.2746 30.5706C51.9478 30.1227 51.1575 28.288 51.7522 27.0384C52.01 26.4971 52.2946 25.9676 52.5238 25.4146C52.584 25.2689 52.5475 24.9987 52.4428 24.887C51.8964 24.3049 51.3057 23.7617 50.7465 23.1903C50.5538 22.9931 50.3879 22.963 50.1429 23.0951C49.6529 23.3594 49.151 23.6033 48.6482 23.8453C47.3984 24.4478 45.5026 23.6927 45.0314 22.3994C44.8427 21.8814 44.6777 21.3557 44.5196 20.8281C44.4376 20.554 44.2895 20.4394 43.9891 20.4462C43.2156 20.4627 42.442 20.4637 41.6685 20.4462C41.3524 20.4394 41.1894 20.5492 41.1024 20.8495C40.9493 21.3781 40.7695 21.8989 40.5907 22.4207C40.3961 22.9902 40.0187 23.3964 39.4447 23.615C39.1236 23.7374 38.7986 23.8531 38.4755 23.9716C37.9332 24.1708 37.4096 24.1135 36.9008 23.857C36.4325 23.6208 35.9494 23.409 35.498 23.1447C35.1631 22.9494 34.9408 23.0047 34.6918 23.2788C34.352 23.6529 33.9766 23.994 33.616 24.3496C32.8345 25.1192 32.8118 25.1309 33.3512 26.0919C33.9637 27.1842 34.2443 28.2569 33.5527 29.4337C33.2406 29.9643 32.8879 30.386 32.2793 30.5706C31.9088 30.6834 31.5433 30.8155 31.1758 30.9389C31.1758 30.9778 31.1758 31.0167 31.1768 31.0565C33.041 31.5395 34.9062 32.0224 36.8218 32.519C36.9492 31.3237 37.2683 30.2461 37.9915 29.3239C38.7117 28.4056 39.6541 27.7691 40.7399 27.3464C41.8404 26.9179 42.9805 26.846 44.1324 27.12C47.1762 27.843 49.1036 30.7057 48.6205 33.6705C48.1769 36.3874 45.3811 39.256 41.1765 38.3464L41.1795 38.3406ZM31.899 12.5314C31.899 11.5957 31.9108 10.7095 31.897 9.8242C31.8298 5.41158 28.1804 1.82201 23.6903 1.76856C21.7333 1.74524 19.7742 1.75593 17.8172 1.76662C16.2948 1.77537 15.2071 2.81415 15.128 4.30381C15.0826 5.15116 14.8376 5.38923 13.988 5.40964C12.4241 5.44656 11.3423 6.52518 11.3325 8.07315C11.3245 9.41608 11.3295 10.759 11.3325 12.1029C11.3325 12.239 11.3552 12.375 11.368 12.5276C11.5982 12.4935 11.776 12.4644 11.9539 12.442C12.7363 12.3458 12.7294 12.3449 12.9052 11.5928C13.166 10.4723 13.4239 9.34806 14.1283 8.39188C14.8939 7.35212 15.8838 7.03145 17.1523 7.29479C18.5334 7.58145 19.9224 7.88172 21.3243 8.0129C23.2211 8.19073 25.1317 8.22765 27.0374 8.29859C29.198 8.37924 30.7243 9.83295 30.8231 11.9387C30.83 12.0806 30.8458 12.2215 30.8587 12.3847C31.2045 12.4333 31.5226 12.479 31.9 12.5324L31.899 12.5314ZM46.9055 32.4607C46.8472 31.1809 46.1616 29.9487 44.733 29.2005C43.344 28.4736 41.9491 28.5504 40.6045 29.3647C39.419 30.0819 38.929 31.2266 38.6445 32.4888C38.5566 32.8775 38.6751 33.171 39.0505 33.4295C39.8754 33.996 40.3901 34.8103 40.6154 35.7723C40.7063 36.1591 40.9206 36.3388 41.2644 36.4768C43.9437 37.5457 46.8936 35.6071 46.9055 32.4626V32.4607ZM17.9209 28.0976C17.6551 29.941 18.3338 31.4656 19.7268 32.2566C21.0635 33.0155 22.7577 32.897 23.9403 31.9631C25.0843 31.0594 25.6701 29.3978 25.2661 28.116C22.8358 28.9945 20.3927 28.9964 17.9209 28.0986V28.0976Z" fill="#3166DE"/>
<path d="M21.593 41.9107C23.1816 41.9029 24.4599 43.1409 24.4728 44.6986C24.4856 46.2534 23.2181 47.5195 21.6355 47.5331C20.0578 47.5467 18.7666 46.2922 18.7606 44.7404C18.7547 43.1749 20.0123 41.9185 21.593 41.9107ZM20.5458 44.7384C20.5557 45.3205 21.0289 45.7753 21.6217 45.7714C22.2134 45.7675 22.6837 45.303 22.6856 44.7219C22.6876 44.1224 22.1927 43.6501 21.5812 43.6657C20.9953 43.6812 20.5359 44.1564 20.5458 44.7384Z" fill="#3166DE"/>
</g>
<defs>
<clipPath id="clip0_1120_5076">
<rect width="57" height="54" fill="white"/>
</clipPath>
</defs>
</svg>
