<svg width="66" height="62" viewBox="0 0 66 62" fill="none" xmlns="http://www.w3.org/2000/svg">
<g clip-path="url(#clip0_1115_1844)">
<path d="M28.8797 31.7913C27.2061 32.76 25.4736 33.1018 23.6499 32.5841C20.876 31.7969 19.1302 29.9631 18.7001 27.1072C18.2811 24.3181 19.2869 22.0112 21.674 20.4524C23.2065 19.4514 24.8312 18.5908 26.4193 17.6755C26.5749 17.5854 26.7927 17.4673 26.9338 17.513C27.4773 17.6867 27.8007 17.3515 28.1607 17.0687C31.8003 14.2084 35.0242 10.9662 37.4424 6.97572C37.7825 6.41568 37.9425 5.95473 37.6536 5.25217C36.9579 3.56536 37.7981 1.64028 39.435 0.845307C41.0965 0.0369744 43.0913 0.58143 44.0548 2.17805C45.1939 4.06639 46.2696 5.99258 47.3754 7.90207C47.4754 8.07576 47.5865 8.24277 47.7077 8.43762C48.5723 8.0869 49.4269 7.89651 50.3293 8.10471C51.9585 8.48104 53.0364 9.46975 53.4421 11.0864C53.8377 12.6585 53.3921 14.0392 52.1607 15.098C51.7818 15.4242 51.8095 15.6302 52.0296 16.0043C53.1365 17.8904 54.2344 19.7832 55.3058 21.6894C56.0014 22.9275 55.9559 24.1901 55.2013 25.3848C54.47 26.5438 53.3754 27.0972 52.0107 27.0437C50.8716 26.9992 49.9325 26.5015 49.2791 25.564C49.0335 25.2122 48.7723 25.0986 48.3678 25.0986C44.6438 25.1031 41.0487 25.8413 37.5325 27.0048C36.3089 27.4101 35.1087 27.8866 33.8184 28.3598C34.0063 28.6259 34.1263 28.8052 34.2552 28.9777C36.1533 31.5397 38.0559 34.0972 39.9485 36.6625C40.852 37.8861 40.7453 38.8726 39.6251 39.8891C39.2961 40.1875 38.9705 40.4915 38.6371 40.7854C37.5269 41.7674 36.2667 41.6494 35.3754 40.4603C33.3183 37.7169 31.2735 34.9645 29.222 32.2166C29.1242 32.0852 29.0164 31.9605 28.8786 31.7902L28.8797 31.7913ZM39.0005 7.79853C36.2211 12.3735 32.5515 15.9475 28.4286 19.0974C28.5464 19.3167 28.6286 19.4815 28.7197 19.6407C29.9677 21.8085 31.2113 23.9808 32.4693 26.143C32.9527 26.9725 32.7149 26.9513 33.6617 26.5628C37.3435 25.0496 41.1342 23.9485 45.1039 23.5287C46.0151 23.4319 46.9309 23.3806 47.9344 23.3016C44.9472 18.1187 42.0011 13.007 39.0005 7.79964V7.79853ZM40.8631 2.22704C40.6964 2.28494 40.3608 2.3484 40.0818 2.50874C39.1372 3.05208 38.9283 4.1421 39.5473 5.21765C42.5234 10.3894 45.5039 15.5601 48.4845 20.7307C49.188 21.951 49.8792 23.178 50.6049 24.386C51.0294 25.0931 51.8096 25.4104 52.5552 25.2512C53.3087 25.0897 53.9544 24.4996 53.9666 23.7347C53.9755 23.2136 53.8099 22.6302 53.5521 22.1726C51.6384 18.7834 49.6825 15.4187 47.7399 12.0462C46.074 9.15577 44.4037 6.26871 42.7457 3.37385C42.3578 2.69579 41.8321 2.26824 40.8653 2.22816L40.8631 2.22704ZM31.6169 28.1939C29.9344 25.2757 28.303 22.4454 26.6427 19.5661C25.2591 20.3744 23.9155 21.1137 22.6175 21.9265C20.466 23.2738 19.7414 26.1096 20.9205 28.3887C22.0829 30.6356 24.8823 31.71 27.1861 30.6523C28.6919 29.9609 30.0955 29.0479 31.618 28.1939H31.6169ZM30.4367 30.8917C30.8735 31.4796 31.2791 32.0273 31.6869 32.574C33.3595 34.8164 35.0398 37.0533 36.6979 39.3057C36.9979 39.7143 37.2324 39.7366 37.5725 39.3814C37.8403 39.1008 38.1304 38.8358 38.4371 38.5998C38.8094 38.3125 38.8227 38.0642 38.5338 37.679C36.6312 35.146 34.7531 32.5952 32.8649 30.0511C32.7705 29.923 32.6571 29.8094 32.5349 29.6692C31.827 30.0811 31.1591 30.4697 30.4367 30.8894V30.8917ZM50.8194 13.8788C51.8084 13.2509 52.1063 11.9493 51.5217 10.9328C50.9272 9.89952 49.6669 9.49647 48.6223 10.0576C49.3546 11.3314 50.087 12.604 50.8194 13.8788Z" fill="#3166DE"/>
<path d="M41.2443 47.5256C41.5066 47.5256 41.7033 47.5256 41.9 47.5256C43.1224 47.5256 44.3449 47.5133 45.5673 47.5311C46.7242 47.5478 47.6188 48.3662 47.6288 49.5086C47.6566 53.0158 47.6577 56.523 47.6266 60.0302C47.6166 61.1525 46.722 61.9876 45.6062 61.9909C40.9576 62.0032 36.3078 62.0043 31.6592 61.9909C30.4845 61.9876 29.6488 61.1225 29.6388 59.9278C29.6233 58.0539 29.6344 56.179 29.6333 54.3051C29.6333 54.1069 29.6333 53.9087 29.6333 53.6604C28.6498 53.8208 27.7451 53.9811 26.835 54.1136C24.4979 54.4554 22.1508 54.4766 19.7959 54.3352C19.4947 54.3174 19.1302 54.4198 18.8813 54.5912C15.484 56.9428 12.1 59.3143 8.71607 61.6859C8.32711 61.9587 7.93815 62.1446 7.49473 61.8295C7.06021 61.52 7.08466 61.0935 7.19357 60.6292C7.85702 57.7945 8.49603 54.9553 9.17616 52.1251C9.28618 51.6686 9.17949 51.4704 8.77719 51.2644C6.25562 49.9695 4.02409 48.2938 2.36934 45.9635C-1.07352 41.1168 -0.773465 35.4941 3.32063 30.9837C6.10892 27.9118 9.65513 26.0947 13.577 24.9379C14.2338 24.7442 14.9017 24.5883 15.5684 24.4347C16.2652 24.2754 16.7342 24.4992 16.8665 25.027C17.0021 25.5681 16.6531 25.9956 15.9319 26.1549C12.8646 26.8329 9.97853 27.9486 7.38582 29.7523C5.39323 31.1385 3.71737 32.8208 2.67717 35.0532C1.39471 37.8055 1.4914 40.5345 2.81609 43.259C4.33859 46.3877 6.93352 48.345 9.9174 49.8804C11.3143 50.5986 11.3366 50.593 10.9754 52.1395C10.4908 54.216 10.0119 56.2925 9.53178 58.3702C9.49177 58.5461 9.4651 58.7242 9.40842 59.0326C9.65625 58.8701 9.80405 58.7765 9.94741 58.6775C12.7279 56.7357 15.5107 54.7995 18.2823 52.8454C18.6724 52.5704 19.058 52.4813 19.5281 52.5259C22.7231 52.831 25.8881 52.6161 29.0287 51.9569C29.4932 51.8589 29.6855 51.6752 29.6433 51.1842C29.5988 50.6687 29.6266 50.1454 29.6355 49.6266C29.6577 48.364 30.4701 47.54 31.7381 47.5323C33.794 47.5178 35.85 47.5178 37.9059 47.5367C38.3438 47.5412 38.6761 47.4176 39.0006 47.1247C41.091 45.2386 42.5157 42.974 42.9113 40.147C43.3014 37.3635 42.3945 34.933 40.6642 32.813C39.8974 31.8733 38.945 31.0839 38.0582 30.2455C37.6259 29.8369 37.4914 29.3849 37.7548 28.9751C38.0182 28.5665 38.5594 28.4273 38.9739 28.7446C42.2489 31.2454 44.5538 34.3529 44.7394 38.6317C44.875 41.7559 43.7103 44.467 41.7222 46.8419C41.591 46.9978 41.4555 47.1504 41.3254 47.3073C41.3032 47.3341 41.2999 47.3753 41.2454 47.5278L41.2443 47.5256ZM38.6183 60.2329C40.8031 60.2329 42.9891 60.2329 45.1739 60.2329C45.8718 60.2329 45.8818 60.2229 45.8818 59.5069C45.8818 56.3337 45.873 53.1605 45.8918 49.9884C45.8952 49.4596 45.7351 49.2781 45.1962 49.2803C40.8065 49.297 36.4179 49.297 32.0282 49.2803C31.5036 49.2781 31.3669 49.4696 31.3703 49.965C31.3869 53.1561 31.388 56.3482 31.3703 59.5392C31.3669 60.0603 31.5103 60.2529 32.0615 60.2462C34.2464 60.2173 36.4323 60.234 38.6172 60.234L38.6183 60.2329Z" fill="#3166DE"/>
<path d="M50.4505 46.8622C49.5026 46.7876 47.5922 44.9149 47.65 44.0041C47.6733 43.6445 47.8556 43.2559 48.0701 42.9553C48.7135 42.0534 48.3423 41.0981 47.2533 40.9534C46.2219 40.8153 45.7563 40.2909 45.7485 39.2488C45.7441 38.7299 45.7396 38.21 45.7507 37.69C45.7696 36.8093 46.2531 36.2671 47.111 36.1468C48.4001 35.9653 48.758 35.0835 47.9745 34.0247C47.4877 33.3678 47.5022 32.6385 48.049 32.0484C48.4768 31.5863 48.9236 31.1398 49.3836 30.7101C49.9749 30.1578 50.7006 30.1367 51.3562 30.6199C52.4442 31.4215 53.2921 31.063 53.4888 29.7191C53.6044 28.9264 54.1479 28.4253 54.9569 28.402C55.567 28.3842 56.1793 28.383 56.7895 28.402C57.6063 28.4287 58.2353 28.9564 58.2531 29.7804C58.2786 30.9472 59.5766 31.436 60.3635 30.6633C60.9658 30.0721 61.7526 30.1456 62.3649 30.7145C62.8128 31.1298 63.2451 31.5652 63.6585 32.015C64.2331 32.6385 64.2542 33.3488 63.7508 34.0358C62.9795 35.0891 63.3529 35.9631 64.652 36.1502C65.4322 36.2626 65.9345 36.7692 65.9745 37.5542C66.0078 38.2022 66.0067 38.8535 65.9767 39.5015C65.9389 40.2998 65.4133 40.8331 64.6176 40.9423C63.3551 41.1171 62.9839 41.9978 63.7407 43.0254C64.2608 43.7324 64.2353 44.4439 63.6341 45.0919C63.2307 45.5261 62.8128 45.9481 62.3749 46.3478C61.7493 46.9201 61.0402 46.9368 60.3557 46.4291C59.3277 45.6675 58.4398 46.035 58.2697 47.2909C58.1586 48.1126 57.6185 48.6314 56.785 48.6671C56.1749 48.6938 55.5626 48.6927 54.9525 48.6671C54.1079 48.6314 53.6011 48.1393 53.4811 47.2898C53.3055 46.0394 52.4164 45.6809 51.3796 46.418C51.104 46.6139 50.7617 46.7164 50.4494 46.8622H50.4505ZM49.5137 33.0772C49.6259 33.2664 49.727 33.4212 49.8126 33.5826C50.6361 35.1292 49.9371 37.1333 48.269 37.6499C47.5177 37.8826 47.4288 38.2545 47.5077 38.8691C47.5189 38.9604 47.5244 39.0517 47.5322 39.1352C50.196 40.1929 50.6461 41.2863 49.5792 43.9741C49.8637 44.2903 50.1338 44.5909 50.3861 44.8715C50.4694 44.8525 50.5116 44.8548 50.5372 44.8347C52.1375 43.5888 54.7491 44.4506 55.1614 46.6073C55.2703 47.1762 55.7659 46.8511 56.0849 46.9201C56.4383 46.9958 56.545 46.7854 56.625 46.4647C57.0951 44.5798 59.2321 43.6612 60.8924 44.6655C61.3648 44.9516 61.5348 44.7033 61.8015 44.445C62.066 44.1889 62.2538 44.013 61.9904 43.5755C60.988 41.9076 61.8893 39.7721 63.7774 39.3C64.1908 39.1964 64.2653 38.9916 64.2408 38.6364C64.2153 38.2679 64.3464 37.8949 63.7574 37.7624C62.6772 37.5196 61.9871 36.7837 61.6915 35.7182C61.4281 34.7706 61.6348 33.8877 62.2049 33.1072C61.8804 32.7821 61.5859 32.4871 61.2925 32.1942C61.2258 32.2265 61.1725 32.2443 61.128 32.2755C59.2577 33.5882 56.8495 32.2978 56.5916 30.4863C56.5139 29.944 56.0816 30.1957 55.7971 30.1667C55.5281 30.14 55.2269 30.0543 55.1303 30.5141C54.8847 31.672 54.1379 32.3946 53.0099 32.7108C52.0708 32.9736 51.2218 32.722 50.4716 32.1942C50.1371 32.5015 49.8271 32.7866 49.5137 33.0749V33.0772Z" fill="#3166DE"/>
<path d="M41.7922 52.4995C41.7588 53.5717 41.3821 54.6116 40.8487 55.5959C40.3019 56.6069 39.6396 57.5377 38.7349 58.2647C38.2737 58.6355 37.7548 58.8949 37.158 58.9818C36.4701 59.082 35.8622 58.8905 35.3121 58.4952C34.9065 58.2035 34.7731 57.6256 35.0065 57.1714C35.2065 56.7817 35.4277 56.4009 35.6655 56.0324C35.9689 55.5603 36.5468 55.4255 37.0513 55.7106C37.577 56.0067 37.5347 56.0502 37.9537 55.5102C38.4204 54.9089 38.7938 54.2509 39.0672 53.5383C39.2439 53.0763 39.2428 53.0763 38.8194 52.8324C38.3493 52.5619 38.1415 52.1599 38.236 51.6767C38.2582 51.5609 38.3049 51.4451 38.3627 51.3416C38.5416 51.0176 38.7261 50.6969 38.9161 50.3796C39.2517 49.8196 39.8285 49.6726 40.4041 49.9866C41.3732 50.5154 41.7822 51.3594 41.7933 52.5006L41.7922 52.4995ZM40.9709 52.6242C40.9787 51.6923 40.7198 51.1011 40.0563 50.727C39.8129 50.59 39.7251 50.6112 39.5795 50.8584C39.4706 51.0443 39.3662 51.2325 39.2562 51.4173C38.935 51.9595 38.9361 51.9562 39.4551 52.2613C39.9307 52.5407 40.113 52.9939 39.9474 53.4949C39.5884 54.5794 39.0261 55.5514 38.2693 56.4065C37.9548 56.7628 37.5014 56.8418 37.068 56.6447C36.9357 56.5846 36.8113 56.5067 36.6823 56.4376C36.5412 56.363 36.4112 56.3686 36.3245 56.5145C36.1356 56.8329 35.9444 57.1502 35.7733 57.4787C35.6788 57.6613 35.7211 57.8172 35.9244 57.9285C36.3234 58.1478 36.7357 58.2569 37.188 58.1467C37.6848 58.0265 38.0837 57.7559 38.456 57.4052C39.2506 56.6559 39.8718 55.7874 40.3352 54.8043C40.6898 54.0527 40.9565 53.2733 40.972 52.6242H40.9709Z" fill="#3166DE"/>
<path d="M22.4319 41.3833C25.7836 41.3833 29.1343 41.3833 32.486 41.3844C32.7071 41.3844 32.935 41.3755 33.1483 41.4223C33.5806 41.5169 33.8273 41.812 33.8251 42.254C33.8229 42.716 33.5806 43.0267 33.1094 43.1069C32.9105 43.1414 32.7038 43.1391 32.5004 43.1391C25.7614 43.1403 19.0213 43.1403 12.2822 43.1391C11.3576 43.1391 10.9376 42.8652 10.9309 42.2685C10.9231 41.6728 11.3599 41.3833 12.2678 41.3833C15.6562 41.3833 19.0446 41.3833 22.433 41.3833H22.4319Z" fill="#3166DE"/>
<path d="M19.5237 36.64C17.0988 36.64 14.6739 36.64 12.249 36.6378C12.0278 36.6378 11.7989 36.6444 11.5866 36.5943C11.1788 36.4964 10.9476 36.198 10.9398 35.7916C10.931 35.3651 11.1388 35.0378 11.5822 34.9331C11.7778 34.8875 11.9856 34.8786 12.1879 34.8786C17.0743 34.8752 21.9608 34.8763 26.8472 34.8786C27.0317 34.8786 27.2184 34.883 27.3996 34.9131C27.8696 34.9921 28.1064 35.2961 28.1264 35.7582C28.1453 36.2046 27.8219 36.5698 27.3518 36.6188C27.0217 36.6533 26.6861 36.6389 26.3538 36.6389C24.0767 36.64 21.8007 36.6389 19.5237 36.6389V36.64Z" fill="#3166DE"/>
<path d="M58.832 15.5953C58.1852 15.5953 57.5373 15.6064 56.8905 15.592C56.3026 15.5786 55.927 15.2424 55.9081 14.7502C55.8881 14.2336 56.2648 13.8517 56.8816 13.8428C58.1941 13.8239 59.5077 13.8239 60.8201 13.8428C61.4091 13.8517 61.7703 14.2125 61.7748 14.7113C61.7792 15.2234 61.3902 15.5786 60.7746 15.5909C60.1278 15.6042 59.4799 15.5942 58.8331 15.5942L58.832 15.5953Z" fill="#3166DE"/>
<path d="M53.7955 0.989964C53.7478 1.10687 53.6922 1.30394 53.5944 1.47652C52.9821 2.5543 52.3642 3.62985 51.7396 4.70094C51.3918 5.29773 50.885 5.47588 50.4105 5.1875C49.9537 4.90915 49.877 4.41703 50.2149 3.82581C50.8483 2.71686 51.4862 1.61124 52.1297 0.507859C52.3564 0.118167 52.6953 -0.0922669 53.151 0.039115C53.5677 0.159363 53.7867 0.462209 53.7955 0.989964Z" fill="#3166DE"/>
<path d="M59.5944 5.43018C59.7689 5.58271 60.1178 5.74861 60.2067 6.00469C60.2968 6.26634 60.2379 6.78519 60.0589 6.89987C58.832 7.68371 57.5729 8.4219 56.2871 9.10553C55.8959 9.31373 55.4792 9.07658 55.2803 8.65349C55.0925 8.256 55.1614 7.84293 55.5348 7.6169C56.7183 6.89876 57.9274 6.22069 59.131 5.53372C59.2221 5.48139 59.3444 5.48362 59.5955 5.43129L59.5944 5.43018Z" fill="#3166DE"/>
<path d="M61.1824 38.5174C61.1946 41.4456 58.8264 43.8394 55.8992 43.8584C52.9576 43.8773 50.5393 41.4645 50.5505 38.524C50.5616 35.5958 52.9442 33.212 55.8648 33.2075C58.7798 33.202 61.1702 35.5891 61.1824 38.5174ZM59.421 38.6064C59.4565 36.6246 57.9085 35.0146 55.927 34.9723C53.9689 34.93 52.3441 36.5121 52.313 38.4918C52.2819 40.4358 53.8433 42.0547 55.7848 42.0936C57.7685 42.1326 59.3865 40.5816 59.421 38.6064Z" fill="#3166DE"/>
</g>
<defs>
<clipPath id="clip0_1115_1844">
<rect width="66" height="62" fill="white"/>
</clipPath>
</defs>
</svg>
